<svg xmlns="http://www.w3.org/2000/svg" viewBox="0 0 200 200" width="200" height="200">
  <!-- Face outline -->
  <ellipse cx="100" cy="110" rx="70" ry="80" fill="#fdbcb4" stroke="#333" stroke-width="2"/>
  
  <!-- Hair -->
  <path d="M30 60 Q50 20 100 25 Q150 20 170 60 Q160 40 100 35 Q40 40 30 60" fill="#8b4513"/>
  
  <!-- Eyebrows (slightly furrowed, showing worry) -->
  <path d="M60 75 Q70 70 80 75" stroke="#333" stroke-width="3" fill="none" stroke-linecap="round"/>
  <path d="M120 75 Q130 70 140 75" stroke="#333" stroke-width="3" fill="none" stroke-linecap="round"/>
  
  <!-- Eyes (darting, avoiding contact) -->
  <ellipse cx="70" cy="85" rx="12" ry="8" fill="white"/>
  <ellipse cx="130" cy="85" rx="12" ry="8" fill="white"/>
  <!-- Pupils looking away/down -->
  <circle cx="67" cy="88" r="4" fill="#333"/>
  <circle cx="127" cy="88" r="4" fill="#333"/>
  
  <!-- Nose -->
  <path d="M95 95 L100 105 L105 95" stroke="#333" stroke-width="1.5" fill="none"/>
  
  <!-- Mouth (tense, slightly downturned) -->
  <path d="M85 130 Q100 125 115 130" stroke="#333" stroke-width="2" fill="none" stroke-linecap="round"/>
  
  <!-- Worry lines on forehead -->
  <path d="M75 65 Q100 60 125 65" stroke="#333" stroke-width="1" fill="none" opacity="0.6"/>
  <path d="M80 70 Q100 65 120 70" stroke="#333" stroke-width="1" fill="none" opacity="0.4"/>
  
  <!-- Subtle tension lines around eyes -->
  <path d="M55 80 Q65 78 75 80" stroke="#333" stroke-width="0.5" fill="none" opacity="0.5"/>
  <path d="M125 80 Q135 78 145 80" stroke="#333" stroke-width="0.5" fill="none" opacity="0.5"/>
</svg>