<svg viewBox="0 0 200 200" xmlns="http://www.w3.org/2000/svg">
  <!-- Face circle with gradient -->
  <defs>
    <radialGradient id="angerFaceGradient" cx="0.3" cy="0.3">
      <stop offset="0%" stop-color="#FEE2E2"/>
      <stop offset="100%" stop-color="#FECACA"/>
    </radialGradient>
    <radialGradient id="angerGlow" cx="0.5" cy="0.5">
      <stop offset="0%" stop-color="#EF4444" stop-opacity="0.3"/>
      <stop offset="100%" stop-color="#EF4444" stop-opacity="0"/>
    </radialGradient>
  </defs>
  
  <circle cx="100" cy="100" r="80" fill="url(#angerFaceGradient)" stroke="#DC2626" stroke-width="3"/>
  <!-- Anger aura -->
  <circle cx="100" cy="100" r="85" fill="url(#angerGlow)"/>
  
  <!-- Eyebrows (severely furrowed and angled) -->
  <path d="M 60 65 L 85 78" stroke="#7F1D1D" stroke-width="6" stroke-linecap="round"/>
  <path d="M 140 65 L 115 78" stroke="#7F1D1D" stroke-width="6" stroke-linecap="round"/>
  
  <!-- Frown lines between eyebrows -->
  <path d="M 90 72 L 95 68" stroke="#DC2626" stroke-width="2" stroke-linecap="round"/>
  <path d="M 105 68 L 110 72" stroke="#DC2626" stroke-width="2" stroke-linecap="round"/>
  <path d="M 95 75 L 105 75" stroke="#DC2626" stroke-width="1.5" stroke-linecap="round"/>
  
  <!-- Eyes (intense and narrowed) -->
  <ellipse cx="75" cy="82" rx="10" ry="5" fill="#7F1D1D"/>
  <ellipse cx="125" cy="82" rx="10" ry="5" fill="#7F1D1D"/>
  
  <!-- Pupils (dilated with anger) -->
  <ellipse cx="75" cy="82" rx="4" ry="3" fill="#1F2937"/>
  <ellipse cx="125" cy="82" rx="4" ry="3" fill="#1F2937"/>
  
  <!-- Eye highlights (intense glare) -->
  <ellipse cx="73" cy="81" rx="1" ry="0.5" fill="#FFFFFF"/>
  <ellipse cx="123" cy="81" rx="1" ry="0.5" fill="#FFFFFF"/>
  
  <!-- Upper eyelids (heavy and threatening) -->
  <path d="M 65 78 Q 75 75 85 78" stroke="#7F1D1D" stroke-width="3" stroke-linecap="round" fill="none"/>
  <path d="M 115 78 Q 125 75 135 78" stroke="#7F1D1D" stroke-width="3" stroke-linecap="round" fill="none"/>
  
  <!-- Nose (flared nostrils) -->
  <ellipse cx="100" cy="100" rx="5" ry="8" fill="#DC2626"/>
  <ellipse cx="96" cy="102" rx="2" ry="3" fill="#7F1D1D"/>
  <ellipse cx="104" cy="102" rx="2" ry="3" fill="#7F1D1D"/>
  <!-- Nostril highlight -->
  <ellipse cx="98" cy="98" rx="1" ry="1.5" fill="#FEE2E2" opacity="0.7"/>
  
  <!-- Mouth (grimacing/snarling) -->
  <path d="M 75 125 Q 100 115 125 125" stroke="#7F1D1D" stroke-width="5" stroke-linecap="round" fill="none"/>
  <!-- Teeth showing (gritted) -->
  <rect x="85" y="120" width="30" height="8" fill="#FFFFFF" stroke="#E5E7EB" stroke-width="1" rx="2"/>
  <line x1="95" y1="120" x2="95" y2="128" stroke="#E5E7EB" stroke-width="0.5"/>
  <line x1="105" y1="120" x2="105" y2="128" stroke="#E5E7EB" stroke-width="0.5"/>
  
  <!-- Nasolabial folds (deep anger lines) -->
  <path d="M 85 108 Q 80 120 75 130" stroke="#DC2626" stroke-width="2" stroke-linecap="round" fill="none" opacity="0.6"/>
  <path d="M 115 108 Q 120 120 125 130" stroke="#DC2626" stroke-width="2" stroke-linecap="round" fill="none" opacity="0.6"/>
  
  <!-- Forehead tension lines -->
  <path d="M 70 50 Q 100 45 130 50" stroke="#DC2626" stroke-width="2" stroke-linecap="round" fill="none" opacity="0.5"/>
  <path d="M 75 55 Q 100 50 125 55" stroke="#DC2626" stroke-width="1.5" stroke-linecap="round" fill="none" opacity="0.4"/>
  
  <!-- Temple veins (bulging from anger) -->
  <path d="M 45 75 Q 50 70 55 75" stroke="#DC2626" stroke-width="2" stroke-linecap="round" fill="none" opacity="0.7"/>
  <path d="M 145 75 Q 150 70 155 75" stroke="#DC2626" stroke-width="2" stroke-linecap="round" fill="none" opacity="0.7"/>
  
  <!-- Jaw tension -->
  <path d="M 65 140 Q 70 145 75 140" stroke="#DC2626" stroke-width="1.5" stroke-linecap="round" fill="none" opacity="0.5"/>
  <path d="M 125 140 Q 130 145 135 140" stroke="#DC2626" stroke-width="1.5" stroke-linecap="round" fill="none" opacity="0.5"/>
</svg>