<svg width="200" height="200" viewBox="0 0 200 200" xmlns="http://www.w3.org/2000/svg">
  <defs>
    <!-- Face gradient with intense rage -->
    <radialGradient id="faceGradientIntenseAnger" cx="0.4" cy="0.3" r="0.8">
      <stop offset="0%" stop-color="#ff9080"/>
      <stop offset="70%" stop-color="#f08070"/>
      <stop offset="100%" stop-color="#e07060"/>
    </radialGradient>
    
    <!-- Intense rage aura -->
    <radialGradient id="intenseRageAura" cx="0.5" cy="0.3" r="0.9">
      <stop offset="0%" stop-color="rgba(255,100,50,0.3)"/>
      <stop offset="100%" stop-color="rgba(200,50,20,0.4)"/>
    </radialGradient>
    
    <!-- Eye gradient (bloodshot) -->
    <radialGradient id="eyeGradientBloodshot" cx="0.3" cy="0.3" r="0.8">
      <stop offset="0%" stop-color="#ffffff"/>
      <stop offset="60%" stop-color="#fff8f8"/>
      <stop offset="100%" stop-color="#ffe8e8"/>
    </radialGradient>
    
    <!-- Rage energy -->
    <radialGradient id="rageEnergy" cx="0.5" cy="0.4" r="0.8">
      <stop offset="0%" stop-color="rgba(255,80,40,0.2)"/>
      <stop offset="100%" stop-color="rgba(200,40,20,0.4)"/>
    </radialGradient>
    
    <!-- Vein gradient -->
    <radialGradient id="veinGradient" cx="0.3" cy="0.3" r="0.8">
      <stop offset="0%" stop-color="rgba(150,50,50,0.8)"/>
      <stop offset="100%" stop-color="rgba(120,30,30,0.6)"/>
    </radialGradient>
    
    <!-- Steam effect -->
    <radialGradient id="steamEffect" cx="0.5" cy="0.2" r="0.6">
      <stop offset="0%" stop-color="rgba(255,255,255,0.6)"/>
      <stop offset="100%" stop-color="rgba(255,255,255,0)"/>
    </radialGradient>
  </defs>
  
  <!-- Intense rage aura -->
  <ellipse cx="100" cy="105" rx="95" ry="105" fill="url(#intenseRageAura)"/>
  
  <!-- Rage energy bursts -->
  <ellipse cx="100" cy="105" rx="80" ry="90" fill="url(#rageEnergy)"/>
  
  <!-- Face outline (swollen with rage) -->
  <ellipse cx="100" cy="105" rx="72" ry="82" fill="url(#faceGradientIntenseAnger)" stroke="#c06050" stroke-width="2"/>
  
  <!-- Hair (wild and disheveled) -->
  <path d="M25 50 Q45 5 100 10 Q155 5 175 50 Q165 25 100 20 Q35 25 25 50" fill="#7a4a3c" stroke="#5d3428" stroke-width="0.5"/>
  <path d="M45 35 Q60 25 75 30" stroke="#8d5b4a" stroke-width="1" fill="none" opacity="0.6"/>
  <path d="M125 30 Q140 25 155 35" stroke="#8d5b4a" stroke-width="1" fill="none" opacity="0.6"/>
  <!-- Wild hair strands -->
  <path d="M35 40 Q40 20 45 40" stroke="#8d5b4a" stroke-width="0.8" fill="none" opacity="0.5"/>
  <path d="M155 40 Q160 20 165 40" stroke="#8d5b4a" stroke-width="0.8" fill="none" opacity="0.5"/>
  <path d="M50 30 Q55 15 60 30" stroke="#8d5b4a" stroke-width="0.6" fill="none" opacity="0.4"/>
  <path d="M140 30 Q145 15 150 30" stroke="#8d5b4a" stroke-width="0.6" fill="none" opacity="0.4"/>
  
  <!-- Eyebrows (extremely furrowed and lowered) -->
  <path d="M65 75 Q70 70 75 75" stroke="#4d2037" stroke-width="4.5" fill="none" stroke-linecap="round"/>
  <path d="M125 75 Q130 70 135 75" stroke="#4d2037" stroke-width="4.5" fill="none" stroke-linecap="round"/>
  
  <!-- Deep frown lines and forehead veins -->
  <path d="M92 60 Q100 58 108 60" stroke="url(#veinGradient)" stroke-width="1.5" fill="none" opacity="0.8"/>
  <path d="M94 63 Q100 61 106 63" stroke="url(#veinGradient)" stroke-width="1.2" fill="none" opacity="0.7"/>
  <path d="M96 66 Q100 64 104 66" stroke="#d04030" stroke-width="1" fill="none" opacity="0.6"/>
  
  <!-- Temple veins -->
  <path d="M75 65 Q80 60 85 65" stroke="url(#veinGradient)" stroke-width="1.2" fill="none" opacity="0.7"/>
  <path d="M115 65 Q120 60 125 65" stroke="url(#veinGradient)" stroke-width="1.2" fill="none" opacity="0.7"/>
  
  <!-- Eyes (extremely narrowed and bloodshot) -->
  <ellipse cx="70" cy="82" rx="8" ry="4" fill="url(#eyeGradientBloodshot)" stroke="#c06050" stroke-width="1"/>
  <ellipse cx="130" cy="82" rx="8" ry="4" fill="url(#eyeGradientBloodshot)" stroke="#c06050" stroke-width="1"/>
  
  <!-- Upper eyelids (heavily lowered) -->
  <path d="M62 79 Q70 76 78 79" stroke="#c06050" stroke-width="2" fill="none"/>
  <path d="M122 79 Q130 76 138 79" stroke="#c06050" stroke-width="2" fill="none"/>
  
  <!-- Lower eyelids (tense) -->
  <path d="M62 85 Q70 88 78 85" stroke="#d07060" stroke-width="1.5" fill="none" opacity="0.8"/>
  <path d="M122 85 Q130 88 138 85" stroke="#d07060" stroke-width="1.5" fill="none" opacity="0.8"/>
  
  <!-- Pupils (dilated with rage) -->
  <circle cx="70" cy="82" r="3" fill="#1c0810"/>
  <circle cx="130" cy="82" r="3" fill="#1c0810"/>
  
  <!-- Eye highlights (fierce) -->
  <circle cx="71" cy="81" r="0.8" fill="#ffffff" opacity="0.9"/>
  <circle cx="131" cy="81" r="0.8" fill="#ffffff" opacity="0.9"/>
  
  <!-- Bloodshot veins in eyes -->
  <path d="M66 80 Q68 82 70 80" stroke="rgba(200,50,50,0.6)" stroke-width="0.5" fill="none"/>
  <path d="M74 80 Q72 84 70 82" stroke="rgba(200,50,50,0.6)" stroke-width="0.5" fill="none"/>
  <path d="M126 80 Q128 82 130 80" stroke="rgba(200,50,50,0.6)" stroke-width="0.5" fill="none"/>
  <path d="M134 80 Q132 84 130 82" stroke="rgba(200,50,50,0.6)" stroke-width="0.5" fill="none"/>
  
  <!-- Intense glare lines -->
  <path d="M78 80 Q85 75 90 82" stroke="#d07060" stroke-width="1.2" fill="none" opacity="0.6"/>
  <path d="M138 80 Q145 75 150 82" stroke="#d07060" stroke-width="1.2" fill="none" opacity="0.6"/>
  
  <!-- Nose (extremely flared) -->
  <path d="M92 88 L100 98 L108 88" stroke="#c06050" stroke-width="2.5" fill="none" stroke-linecap="round"/>
  <ellipse cx="96" cy="95" rx="2.5" ry="3" fill="#c06050" opacity="0.6"/>
  <ellipse cx="104" cy="95" rx="2.5" ry="3" fill="#c06050" opacity="0.6"/>
  
  <!-- Extreme nostril flare -->
  <path d="M94 97 Q96 100 98 97" stroke="#b05040" stroke-width="1.2" fill="none" opacity="0.7"/>
  <path d="M102 97 Q104 100 106 97" stroke="#b05040" stroke-width="1.2" fill="none" opacity="0.7"/>
  
  <!-- Mouth (gritted teeth, snarling) -->
  <path d="M82 125 Q100 120 118 125" stroke="#c06050" stroke-width="3" fill="none" stroke-linecap="round"/>
  
  <!-- Gritted teeth showing -->
  <rect x="90" y="122" width="20" height="6" fill="#ffffff" rx="1" opacity="0.9"/>
  <path d="M92 122 L92 128" stroke="#e8e8e8" stroke-width="0.5"/>
  <path d="M96 122 L96 128" stroke="#e8e8e8" stroke-width="0.5"/>
  <path d="M100 122 L100 128" stroke="#e8e8e8" stroke-width="0.5"/>
  <path d="M104 122 L104 128" stroke="#e8e8e8" stroke-width="0.5"/>
  <path d="M108 122 L108 128" stroke="#e8e8e8" stroke-width="0.5"/>
  
  <!-- Snarling lip definition -->
  <path d="M84 123 Q100 118 116 123" stroke="#d07060" stroke-width="1.5" fill="none" opacity="0.8"/>
  
  <!-- Extreme mouth tension -->
  <path d="M80 127 Q82 130 84 127" stroke="#d07060" stroke-width="1.2" fill="none" opacity="0.7"/>
  <path d="M116 127 Q118 130 120 127" stroke="#d07060" stroke-width="1.2" fill="none" opacity="0.7"/>
  
  <!-- Deep nasolabial folds -->
  <path d="M108 98 Q118 108 120 118" stroke="#d07060" stroke-width="2" fill="none" opacity="0.8"/>
  <path d="M92 98 Q82 108 80 118" stroke="#d07060" stroke-width="2" fill="none" opacity="0.8"/>
  
  <!-- Cheek tension (bulging) -->
  <path d="M122 105 Q128 110 126 115" stroke="#e08070" stroke-width="1.5" fill="none" opacity="0.6"/>
  <path d="M78 105 Q72 110 74 115" stroke="#e08070" stroke-width="1.5" fill="none" opacity="0.6"/>
  
  <!-- Jaw clenching -->
  <path d="M80 148 Q100 150 120 148" stroke="#d07060" stroke-width="1.8" fill="none" opacity="0.7"/>
  <path d="M70 133 Q85 138 100 136" stroke="#e08070" stroke-width="1.5" fill="none" opacity="0.5"/>
  <path d="M100 136 Q115 138 130 133" stroke="#e08070" stroke-width="1.5" fill="none" opacity="0.5"/>
  
  <!-- Neck tension -->
  <path d="M85 173 Q100 176 115 173" stroke="#e08070" stroke-width="1.5" fill="none" opacity="0.5"/>
  
  <!-- Steam from ears (cartoon anger) -->
  <ellipse cx="45" cy="90" rx="3" ry="8" fill="url(#steamEffect)"/>
  <ellipse cx="155" cy="90" rx="3" ry="8" fill="url(#steamEffect)"/>
  <ellipse cx="42" cy="85" rx="2" ry="6" fill="url(#steamEffect)"/>
  <ellipse cx="158" cy="85" rx="2" ry="6" fill="url(#steamEffect)"/>
  
  <!-- Rage energy bursts -->
  <path d="M30 80 Q40 70 50 80" stroke="rgba(255,100,50,0.6)" stroke-width="2" fill="none" opacity="0.7"/>
  <path d="M150 80 Q160 70 170 80" stroke="rgba(255,100,50,0.6)" stroke-width="2" fill="none" opacity="0.7"/>
  <path d="M35 120 Q45 110 55 120" stroke="rgba(255,100,50,0.5)" stroke-width="1.5" fill="none" opacity="0.6"/>
  <path d="M145 120 Q155 110 165 120" stroke="rgba(255,100,50,0.5)" stroke-width="1.5" fill="none" opacity="0.6"/>
  
  <!-- Explosive anger lines -->
  <path d="M20 60 Q30 50 40 60" stroke="rgba(255,80,40,0.4)" stroke-width="1.5" fill="none"/>
  <path d="M160 60 Q170 50 180 60" stroke="rgba(255,80,40,0.4)" stroke-width="1.5" fill="none"/>
  
  <!-- Heavy shadow (trembling with rage) -->
  <ellipse cx="100" cy="175" rx="60" ry="12" fill="rgba(200,50,20,0.3)"/>
  
  <!-- Intense rage aura -->
  <ellipse cx="100" cy="105" rx="74" ry="84" fill="none" stroke="rgba(255,100,50,0.4)" stroke-width="2"/>
  
  <!-- Additional rage sparks -->
  <circle cx="25" cy="75" r="1.5" fill="rgba(255,100,50,0.8)"/>
  <circle cx="175" cy="80" r="1.2" fill="rgba(255,100,50,0.7)"/>
  <circle cx="20" cy="110" r="1" fill="rgba(255,100,50,0.6)"/>
  <circle cx="180" cy="105" r="0.8" fill="rgba(255,100,50,0.5)"/>
</svg>