<svg viewBox="0 0 200 200" xmlns="http://www.w3.org/2000/svg">
  <!-- Intense Confusion: Total confusion, completely lost expression, disorientation -->
  
  <!-- Definitions for gradients and effects -->
  <defs>
    <!-- Face gradient with intense bewilderment -->
    <radialGradient id="faceGradientIntense" cx="50%" cy="45%" r="60%">
      <stop offset="0%" stop-color="#fdcb6e" stop-opacity="0.8"/>
      <stop offset="40%" stop-color="#74b9ff" stop-opacity="0.6"/>
      <stop offset="100%" stop-color="#636e72" stop-opacity="0.4"/>
    </radialGradient>
    
    <!-- Eye gradient with lost, unfocused look -->
    <radialGradient id="eyeGradientIntense" cx="30%" cy="50%" r="70%">
      <stop offset="0%" stop-color="#74b9ff" stop-opacity="0.6"/>
      <stop offset="50%" stop-color="#0984e3" stop-opacity="0.5"/>
      <stop offset="100%" stop-color="#2d3436" stop-opacity="0.8"/>
    </radialGradient>
    
    <!-- Intense confusion aura -->
    <radialGradient id="confusionAuraIntense" cx="50%" cy="50%" r="80%">
      <stop offset="0%" stop-color="#74b9ff" stop-opacity="0.2"/>
      <stop offset="50%" stop-color="#0984e3" stop-opacity="0.15"/>
      <stop offset="100%" stop-color="#636e72" stop-opacity="0.1"/>
    </radialGradient>
    
    <!-- Disorientation glow filter -->
    <filter id="disorientationGlow">
      <feGaussianBlur stdDeviation="2.2" result="coloredBlur"/>
      <feMerge>
        <feMergeNode in="coloredBlur"/>
        <feMergeNode in="SourceGraphic"/>
      </feMerge>
    </filter>
    
    <!-- Confusion swirl effect -->
    <filter id="confusionSwirl">
      <feTurbulence baseFrequency="0.02" numOctaves="3" result="noise"/>
      <feDisplacementMap in="SourceGraphic" in2="noise" scale="2"/>
    </filter>
  </defs>
  
  <!-- Background aura of intense confusion -->
  <circle cx="100" cy="100" r="95" fill="url(#confusionAuraIntense)" opacity="0.8"/>
  
  <!-- Confusion swirl waves -->
  <ellipse cx="100" cy="95" rx="60" ry="65" fill="none" stroke="#74b9ff" stroke-width="1.2" opacity="0.4" filter="url(#confusionSwirl)"/>
  <ellipse cx="100" cy="95" rx="55" ry="60" fill="none" stroke="#0984e3" stroke-width="0.8" opacity="0.3" filter="url(#confusionSwirl)"/>
  <ellipse cx="100" cy="95" rx="50" ry="55" fill="none" stroke="#636e72" stroke-width="0.6" opacity="0.2" filter="url(#confusionSwirl)"/>
  
  <!-- Face shape with extreme disorientation tilt -->
  <ellipse cx="98" cy="100" rx="42" ry="46" fill="url(#faceGradientIntense)" stroke="#74b9ff" stroke-width="1.5" transform="rotate(-12 98 100)"/>
  
  <!-- Hair extremely disheveled from head scratching and confusion -->
  <path d="M 56 70 Q 68 45 98 48 Q 132 45 144 70 Q 140 55 115 60 Q 98 55 83 60 Q 60 55 56 70" 
        fill="#6c5ce7" stroke="#a29bfe" stroke-width="1.2" transform="rotate(-12 100 58)"/>
  
  <!-- Extremely messy hair strands from confusion -->
  <path d="M 60 58 Q 65 50 75 58" stroke="#a29bfe" stroke-width="2.5" fill="none" opacity="0.9" transform="rotate(-12 67 54)"/>
  <path d="M 125 58 Q 135 50 140 58" stroke="#a29bfe" stroke-width="2.5" fill="none" opacity="0.9" transform="rotate(-12 132 54)"/>
  <path d="M 72 55 Q 78 48 85 55" stroke="#a29bfe" stroke-width="2" fill="none" opacity="0.7" transform="rotate(-12 78 51)"/>
  <path d="M 115 55 Q 122 48 128 55" stroke="#a29bfe" stroke-width="2" fill="none" opacity="0.7" transform="rotate(-12 121 51)"/>
  <path d="M 88 53 Q 95 46 102 53" stroke="#a29bfe" stroke-width="1.8" fill="none" opacity="0.6" transform="rotate(-12 95 49)"/>
  <path d="M 105 53 Q 112 46 118 53" stroke="#a29bfe" stroke-width="1.8" fill="none" opacity="0.6" transform="rotate(-12 111 49)"/>
  
  <!-- Additional wild hair strands -->
  <path d="M 65 60 Q 70 52 78 60" stroke="#a29bfe" stroke-width="1.5" fill="none" opacity="0.5" transform="rotate(-12 71 56)"/>
  <path d="M 122 60 Q 130 52 135 60" stroke="#a29bfe" stroke-width="1.5" fill="none" opacity="0.5" transform="rotate(-12 128 56)"/>
  
  <!-- Eyebrows extremely furrowed and asymmetric from confusion -->
  <path d="M 74 76 Q 85 72 96 76" stroke="#2d3436" stroke-width="3" fill="none" stroke-linecap="round" transform="rotate(-12 85 74)"/>
  <path d="M 104 78 Q 115 74 126 78" stroke="#2d3436" stroke-width="3" fill="none" stroke-linecap="round" transform="rotate(-12 115 76)"/>
  
  <!-- Deep confusion and bewilderment lines -->
  <path d="M 86 74 Q 90 70 94 74" stroke="#b2bec3" stroke-width="1.5" fill="none" opacity="0.8" transform="rotate(-12 90 72)"/>
  <path d="M 106 76 Q 110 72 114 76" stroke="#b2bec3" stroke-width="1.5" fill="none" opacity="0.8" transform="rotate(-12 110 74)"/>
  <path d="M 88 76 Q 92 73 96 76" stroke="#b2bec3" stroke-width="1.2" fill="none" opacity="0.6" transform="rotate(-12 92 74)"/>
  <path d="M 104 78 Q 108 75 112 78" stroke="#b2bec3" stroke-width="1.2" fill="none" opacity="0.6" transform="rotate(-12 108 76)"/>
  
  <!-- Additional bewilderment furrows -->
  <path d="M 82 78 Q 86 75 90 78" stroke="#b2bec3" stroke-width="1" fill="none" opacity="0.5" transform="rotate(-12 86 76)"/>
  <path d="M 110 80 Q 114 77 118 80" stroke="#b2bec3" stroke-width="1" fill="none" opacity="0.5" transform="rotate(-12 114 78)"/>
  <path d="M 84 80 Q 88 77 92 80" stroke="#b2bec3" stroke-width="0.8" fill="none" opacity="0.4" transform="rotate(-12 88 78)"/>
  
  <!-- Eyes wide open with completely lost, unfocused stare -->
  <ellipse cx="83" cy="88" rx="8" ry="6" fill="url(#eyeGradientIntense)" transform="rotate(-12 83 88)"/>
  <ellipse cx="117" cy="88" rx="8" ry="6" fill="url(#eyeGradientIntense)" transform="rotate(-12 117 88)"/>
  
  <!-- Extremely wide, bewildered eyelids -->
  <path d="M 75 85 Q 83 82 91 85" stroke="#2d3436" stroke-width="2" fill="none" opacity="0.9" transform="rotate(-12 83 83)"/>
  <path d="M 109 85 Q 117 82 125 85" stroke="#2d3436" stroke-width="2" fill="none" opacity="0.9" transform="rotate(-12 117 83)"/>
  
  <!-- Lower eyelids showing extreme bewilderment -->
  <path d="M 75 91 Q 83 94 91 91" stroke="#2d3436" stroke-width="1.5" fill="none" opacity="0.7" transform="rotate(-12 83 92)"/>
  <path d="M 109 91 Q 117 94 125 91" stroke="#2d3436" stroke-width="1.5" fill="none" opacity="0.7" transform="rotate(-12 117 92)"/>
  
  <!-- Pupils dilated and unfocused, looking in different directions -->
  <circle cx="81" cy="89" r="3.2" fill="#2d3436" transform="rotate(-12 81 89)"/>
  <circle cx="119" cy="89" r="3.2" fill="#2d3436" transform="rotate(-12 119 89)"/>
  
  <!-- Confused, unfocused eye highlights -->
  <circle cx="82" cy="87" r="0.8" fill="#74b9ff" opacity="0.6" transform="rotate(-12 82 87)"/>
  <circle cx="120" cy="87" r="0.8" fill="#74b9ff" opacity="0.6" transform="rotate(-12 120 87)"/>
  
  <!-- Additional scattered highlights showing disorientation -->
  <circle cx="80" cy="88" r="0.4" fill="#ffffff" opacity="0.5" transform="rotate(-12 80 88)"/>
  <circle cx="118" cy="88" r="0.4" fill="#ffffff" opacity="0.5" transform="rotate(-12 118 88)"/>
  
  <!-- Extreme under-eye bags from mental strain -->
  <path d="M 75 93 Q 83 96 91 93" stroke="#b2bec3" stroke-width="2" fill="none" opacity="0.7" transform="rotate(-12 83 94)"/>
  <path d="M 109 93 Q 117 96 125 93" stroke="#b2bec3" stroke-width="2" fill="none" opacity="0.7" transform="rotate(-12 117 94)"/>
  
  <!-- Additional confusion stress lines -->
  <path d="M 77 95 Q 83 97 89 95" stroke="#b2bec3" stroke-width="1.5" fill="none" opacity="0.5" transform="rotate(-12 83 96)"/>
  <path d="M 111 95 Q 117 97 123 95" stroke="#b2bec3" stroke-width="1.5" fill="none" opacity="0.5" transform="rotate(-12 117 96)"/>
  
  <!-- Nose with bewildered flare -->
  <path d="M 98 100 L 96 110 L 98 112 L 100 110 Z" fill="#e17055" stroke="#d63031" stroke-width="0.8" transform="rotate(-12 98 106)"/>
  
  <!-- Confused nostril flare -->
  <ellipse cx="96" cy="108" rx="1.8" ry="1.2" fill="#d63031" opacity="0.6" transform="rotate(-12 96 108)"/>
  <ellipse cx="100" cy="108" rx="1.8" ry="1.2" fill="#d63031" opacity="0.6" transform="rotate(-12 100 108)"/>
  
  <!-- Mouth wide open in bewilderment -->
  <ellipse cx="98" cy="120" rx="10" ry="6" fill="#2d3436" opacity="0.8" transform="rotate(-12 98 120)"/>
  <path d="M 88 120 Q 98 125 108 120" stroke="#2d3436" stroke-width="2.5" fill="none" stroke-linecap="round" transform="rotate(-12 98 122)"/>
  
  <!-- Extremely open lip definition -->
  <path d="M 90 120 Q 98 124 106 120" stroke="#e17055" stroke-width="1.2" fill="none" opacity="0.8" transform="rotate(-12 98 122)"/>
  
  <!-- Extreme mouth tension from bewilderment -->
  <circle cx="88" cy="120" r="1.5" fill="#d63031" opacity="0.7" transform="rotate(-12 88 120)"/>
  <circle cx="108" cy="120" r="1.5" fill="#d63031" opacity="0.7" transform="rotate(-12 108 120)"/>
  
  <!-- Mouth corners showing extreme confusion -->
  <path d="M 86 120 Q 88 123 90 120" stroke="#2d3436" stroke-width="1.5" fill="none" opacity="0.8" transform="rotate(-12 88 121)"/>
  <path d="M 106 120 Q 108 123 110 120" stroke="#2d3436" stroke-width="1.5" fill="none" opacity="0.8" transform="rotate(-12 108 121)"/>
  
  <!-- Extreme nasolabial folds from bewildered expression -->
  <path d="M 86 110 Q 88 115 90 120" stroke="#b2bec3" stroke-width="1.8" fill="none" opacity="0.7" transform="rotate(-12 88 115)"/>
  <path d="M 110 110 Q 108 115 106 120" stroke="#b2bec3" stroke-width="1.8" fill="none" opacity="0.7" transform="rotate(-12 108 115)"/>
  
  <!-- Cheek definition with extreme bewilderment -->
  <ellipse cx="75" cy="108" rx="9" ry="12" fill="#e17055" opacity="0.4" transform="rotate(-12 75 108)"/>
  <ellipse cx="123" cy="108" rx="9" ry="12" fill="#e17055" opacity="0.4" transform="rotate(-12 123 108)"/>
  
  <!-- Chin dropped in bewilderment -->
  <ellipse cx="98" cy="136" rx="16" ry="9" fill="#e17055" opacity="0.5" transform="rotate(-12 98 136)"/>
  
  <!-- Jawline completely slack from confusion -->
  <path d="M 70 125 Q 84 142 98 142 Q 112 142 126 125" stroke="#d63031" stroke-width="1.2" fill="none" opacity="0.6" transform="rotate(-12 98 133)"/>
  
  <!-- Neck tilted in extreme confusion -->
  <rect x="89" y="146" width="18" height="11" fill="#fdcb6e" stroke="#e17055" stroke-width="1" opacity="0.8" transform="rotate(-12 98 151)"/>
  
  <!-- Multiple question marks and confusion symbols -->
  <circle cx="130" cy="70" r="12" fill="#74b9ff" opacity="0.15" stroke="#0984e3" stroke-width="0.8" opacity="0.4"/>
  <text x="130" y="76" font-family="Arial, sans-serif" font-size="14" fill="#0984e3" opacity="0.7" text-anchor="middle">?</text>
  
  <circle cx="145" cy="85" r="10" fill="#0984e3" opacity="0.12" stroke="#74b9ff" stroke-width="0.6" opacity="0.3"/>
  <text x="145" y="90" font-family="Arial, sans-serif" font-size="12" fill="#74b9ff" opacity="0.6" text-anchor="middle">?</text>
  
  <circle cx="65" cy="75" r="8" fill="#636e72" opacity="0.1" stroke="#74b9ff" stroke-width="0.5" opacity="0.2"/>
  <text x="65" y="79" font-family="Arial, sans-serif" font-size="10" fill="#636e72" opacity="0.5" text-anchor="middle">?</text>
  
  <!-- Confusion energy swirls -->
  <path d="M 85 98 Q 98 102 111 98" stroke="#74b9ff" stroke-width="1" fill="none" opacity="0.5" transform="rotate(-12 98 100)"/>
  <path d="M 80 108 Q 87 112 94 108" stroke="#0984e3" stroke-width="0.8" fill="none" opacity="0.4" transform="rotate(-12 87 110)"/>
  <path d="M 104 108 Q 111 112 118 108" stroke="#0984e3" stroke-width="0.8" fill="none" opacity="0.4" transform="rotate(-12 111 110)"/>
  
  <!-- Disorientation spiral -->
  <path d="M 98 95 Q 105 90 110 95 Q 105 100 98 95" stroke="#74b9ff" stroke-width="0.6" fill="none" opacity="0.4">
    <animateTransform attributeName="transform" type="rotate" values="0 98 95;360 98 95" dur="8s" repeatCount="indefinite"/>
  </path>
  
  <!-- Heavy shadow for extreme disorientation -->
  <ellipse cx="98" cy="172" rx="42" ry="10" fill="#2d3436" opacity="0.2" transform="rotate(-12 98 172)"/>
  
  <!-- Intense confusion energy bursts -->
  <circle cx="65" cy="82" r="1.5" fill="#74b9ff" opacity="0.8">
    <animate attributeName="opacity" values="0.8;1;0.8" dur="1.2s" repeatCount="indefinite"/>
  </circle>
  <circle cx="135" cy="88" r="1.3" fill="#0984e3" opacity="0.7">
    <animate attributeName="opacity" values="0.7;0.9;0.7" dur="1s" repeatCount="indefinite"/>
  </circle>
  <circle cx="120" cy="72" r="1.1" fill="#636e72" opacity="0.6">
    <animate attributeName="opacity" values="0.6;0.8;0.6" dur="1.4s" repeatCount="indefinite"/>
  </circle>
  
  <!-- Bewilderment sparks -->
  <circle cx="55" cy="95" r="0.9" fill="#74b9ff" opacity="0.5">
    <animate attributeName="opacity" values="0.5;0.8;0.5" dur="1.8s" repeatCount="indefinite"/>
  </circle>
  <circle cx="145" cy="100" r="0.8" fill="#0984e3" opacity="0.4">
    <animate attributeName="opacity" values="0.4;0.7;0.4" dur="1.6s" repeatCount="indefinite"/>
  </circle>
  
  <!-- Confusion swirl tendrils -->
  <path d="M 50 98 Q 65 88 80 98" stroke="#74b9ff" stroke-width="0.8" fill="none" opacity="0.3">
    <animate attributeName="opacity" values="0.3;0.6;0.3" dur="3s" repeatCount="indefinite"/>
  </path>
  <path d="M 120 98 Q 135 88 150 98" stroke="#0984e3" stroke-width="0.8" fill="none" opacity="0.3">
    <animate attributeName="opacity" values="0.3;0.6;0.3" dur="2.7s" repeatCount="indefinite"/>
  </path>
  
  <!-- Disorientation aura pulses -->
  <circle cx="98" cy="100" r="52" fill="none" stroke="#74b9ff" stroke-width="0.5" opacity="0.2">
    <animate attributeName="r" values="52;58;52" dur="4s" repeatCount="indefinite"/>
    <animate attributeName="opacity" values="0.2;0.05;0.2" dur="4s" repeatCount="indefinite"/>
  </circle>
  
  <!-- Floating confusion symbols -->
  <text x="75" y="65" font-family="Arial, sans-serif" font-size="8" fill="#74b9ff" opacity="0.4" text-anchor="middle">?</text>
  <text x="125" y="125" font-family="Arial, sans-serif" font-size="6" fill="#0984e3" opacity="0.3" text-anchor="middle">?</text>
  <text x="160" y="75" font-family="Arial, sans-serif" font-size="7" fill="#636e72" opacity="0.2" text-anchor="middle">?</text>
</svg>