<svg viewBox="0 0 200 200" xmlns="http://www.w3.org/2000/svg">
  <!-- Mild Confusion: Light perplexity, slightly furrowed eyebrows, tilted head -->
  
  <!-- Definitions for gradients and effects -->
  <defs>
    <!-- Face gradient with subtle puzzlement -->
    <radialGradient id="faceGradientMild" cx="50%" cy="45%" r="60%">
      <stop offset="0%" stop-color="#fdcb6e" stop-opacity="0.9"/>
      <stop offset="60%" stop-color="#e17055" stop-opacity="0.8"/>
      <stop offset="100%" stop-color="#74b9ff" stop-opacity="0.1"/>
    </radialGradient>
    
    <!-- Eye gradient with questioning look -->
    <radialGradient id="eyeGradientMild" cx="50%" cy="40%" r="60%">
      <stop offset="0%" stop-color="#74b9ff" stop-opacity="0.8"/>
      <stop offset="50%" stop-color="#0984e3" stop-opacity="0.7"/>
      <stop offset="100%" stop-color="#2d3436" stop-opacity="0.8"/>
    </radialGradient>
    
    <!-- Subtle confusion aura -->
    <radialGradient id="confusionAura" cx="50%" cy="50%" r="70%">
      <stop offset="0%" stop-color="#74b9ff" stop-opacity="0.06"/>
      <stop offset="50%" stop-color="#0984e3" stop-opacity="0.04"/>
      <stop offset="100%" stop-color="#636e72" stop-opacity="0.02"/>
    </radialGradient>
    
    <!-- Puzzlement glow filter -->
    <filter id="puzzlementGlow">
      <feGaussianBlur stdDeviation="1" result="coloredBlur"/>
      <feMerge>
        <feMergeNode in="coloredBlur"/>
        <feMergeNode in="SourceGraphic"/>
      </feMerge>
    </filter>
  </defs>
  
  <!-- Background aura of mild confusion -->
  <circle cx="100" cy="100" r="85" fill="url(#confusionAura)" opacity="0.4"/>
  
  <!-- Face shape with slight tilt -->
  <ellipse cx="100" cy="98" rx="44" ry="48" fill="url(#faceGradientMild)" stroke="#ddd" stroke-width="1" transform="rotate(-3 100 98)"/>
  
  <!-- Hair with slight dishevelment from head scratching -->
  <path d="M 56 68 Q 72 50 100 52 Q 128 50 144 68 Q 140 60 118 62 Q 100 60 82 62 Q 60 60 56 68" 
        fill="#6c5ce7" stroke="#a29bfe" stroke-width="1" transform="rotate(-3 100 60)"/>
  
  <!-- Slightly messed hair strands -->
  <path d="M 68 62 Q 75 58 82 62" stroke="#a29bfe" stroke-width="1.2" fill="none" opacity="0.6" transform="rotate(-3 75 60)"/>
  <path d="M 118 62 Q 125 58 132 62" stroke="#a29bfe" stroke-width="1.2" fill="none" opacity="0.6" transform="rotate(-3 125 60)"/>
  <path d="M 90 58 Q 95 55 100 58" stroke="#a29bfe" stroke-width="1" fill="none" opacity="0.5" transform="rotate(-3 95 56)"/>
  
  <!-- Eyebrows slightly furrowed in puzzlement -->
  <path d="M 77 79 Q 86 77 95 79" stroke="#2d3436" stroke-width="2" fill="none" stroke-linecap="round" transform="rotate(-3 86 78)"/>
  <path d="M 105 79 Q 114 77 123 79" stroke="#2d3436" stroke-width="2" fill="none" stroke-linecap="round" transform="rotate(-3 114 78)"/>
  
  <!-- Subtle puzzlement lines -->
  <path d="M 89 78 Q 91 76 93 78" stroke="#b2bec3" stroke-width="0.5" fill="none" opacity="0.4" transform="rotate(-3 91 77)"/>
  <path d="M 107 78 Q 109 76 111 78" stroke="#b2bec3" stroke-width="0.5" fill="none" opacity="0.4" transform="rotate(-3 109 77)"/>
  
  <!-- Eyes with questioning, searching gaze -->
  <ellipse cx="85" cy="87" rx="7" ry="5" fill="url(#eyeGradientMild)" transform="rotate(-3 85 87)"/>
  <ellipse cx="115" cy="87" rx="7" ry="5" fill="url(#eyeGradientMild)" transform="rotate(-3 115 87)"/>
  
  <!-- Upper eyelids showing concentration -->
  <path d="M 78 85 Q 85 83 92 85" stroke="#2d3436" stroke-width="1" fill="none" opacity="0.7" transform="rotate(-3 85 84)"/>
  <path d="M 108 85 Q 115 83 122 85" stroke="#2d3436" stroke-width="1" fill="none" opacity="0.7" transform="rotate(-3 115 84)"/>
  
  <!-- Pupils searching and slightly dilated -->
  <circle cx="85" cy="88" r="2.8" fill="#2d3436" transform="rotate(-3 85 88)"/>
  <circle cx="115" cy="88" r="2.8" fill="#2d3436" transform="rotate(-3 115 88)"/>
  
  <!-- Eye highlights with questioning glint -->
  <circle cx="86" cy="86" r="0.9" fill="#ffffff" opacity="0.8" transform="rotate(-3 86 86)"/>
  <circle cx="116" cy="86" r="0.9" fill="#ffffff" opacity="0.8" transform="rotate(-3 116 86)"/>
  
  <!-- Subtle under-eye tension from concentration -->
  <path d="M 79 90 Q 85 91 91 90" stroke="#b2bec3" stroke-width="0.4" fill="none" opacity="0.3" transform="rotate(-3 85 90)"/>
  <path d="M 109 90 Q 115 91 121 90" stroke="#b2bec3" stroke-width="0.4" fill="none" opacity="0.3" transform="rotate(-3 115 90)"/>
  
  <!-- Nose with normal definition -->
  <path d="M 100 98 L 98 108 L 100 110 L 102 108 Z" fill="#e17055" stroke="#d63031" stroke-width="0.5" transform="rotate(-3 100 104)"/>
  
  <!-- Subtle nostril definition -->
  <ellipse cx="98" cy="106" rx="1" ry="0.7" fill="#d63031" opacity="0.3" transform="rotate(-3 98 106)"/>
  <ellipse cx="102" cy="106" rx="1" ry="0.7" fill="#d63031" opacity="0.3" transform="rotate(-3 102 106)"/>
  
  <!-- Mouth slightly open in puzzlement -->
  <ellipse cx="100" cy="118" rx="6" ry="3" fill="#2d3436" opacity="0.6" transform="rotate(-3 100 118)"/>
  <path d="M 94 118 Q 100 120 106 118" stroke="#2d3436" stroke-width="1.5" fill="none" stroke-linecap="round" transform="rotate(-3 100 119)"/>
  
  <!-- Lip definition with slight parting -->
  <path d="M 96 118 Q 100 119 104 118" stroke="#e17055" stroke-width="0.6" fill="none" opacity="0.6" transform="rotate(-3 100 118)"/>
  
  <!-- Subtle mouth tension -->
  <circle cx="94" cy="118" r="0.5" fill="#d63031" opacity="0.3" transform="rotate(-3 94 118)"/>
  <circle cx="106" cy="118" r="0.5" fill="#d63031" opacity="0.3" transform="rotate(-3 106 118)"/>
  
  <!-- Gentle nasolabial folds -->
  <path d="M 91 108 Q 93 113 95 118" stroke="#b2bec3" stroke-width="0.4" fill="none" opacity="0.3" transform="rotate(-3 93 113)"/>
  <path d="M 109 108 Q 107 113 105 118" stroke="#b2bec3" stroke-width="0.4" fill="none" opacity="0.3" transform="rotate(-3 107 113)"/>
  
  <!-- Cheek definition with slight tension -->
  <ellipse cx="77" cy="105" rx="6" ry="9" fill="#e17055" opacity="0.2" transform="rotate(-3 77 105)"/>
  <ellipse cx="123" cy="105" rx="6" ry="9" fill="#e17055" opacity="0.2" transform="rotate(-3 123 105)"/>
  
  <!-- Chin with slight puzzlement -->
  <ellipse cx="100" cy="133" rx="14" ry="7" fill="#e17055" opacity="0.3" transform="rotate(-3 100 133)"/>
  
  <!-- Jawline showing mild tension -->
  <path d="M 73 123 Q 87 137 100 137 Q 113 137 127 123" stroke="#d63031" stroke-width="0.5" fill="none" opacity="0.4" transform="rotate(-3 100 130)"/>
  
  <!-- Neck with tilted posture -->
  <rect x="92" y="143" width="16" height="14" fill="#fdcb6e" stroke="#e17055" stroke-width="0.5" opacity="0.7" transform="rotate(-3 100 150)"/>
  
  <!-- Question mark thought bubble (subtle) -->
  <circle cx="125" cy="75" r="8" fill="#74b9ff" opacity="0.1" stroke="#0984e3" stroke-width="0.5" opacity="0.3"/>
  <text x="125" y="80" font-family="Arial, sans-serif" font-size="10" fill="#0984e3" opacity="0.5" text-anchor="middle">?</text>
  
  <!-- Subtle confusion energy lines -->
  <path d="M 96 94 Q 100 96 104 94" stroke="#74b9ff" stroke-width="0.3" fill="none" opacity="0.4" transform="rotate(-3 100 95)"/>
  <path d="M 89 104 Q 93 106 97 104" stroke="#0984e3" stroke-width="0.3" fill="none" opacity="0.3" transform="rotate(-3 93 105)"/>
  <path d="M 103 104 Q 107 106 111 104" stroke="#0984e3" stroke-width="0.3" fill="none" opacity="0.3" transform="rotate(-3 107 105)"/>
  
  <!-- Gentle shadow for tilted head -->
  <ellipse cx="102" cy="165" rx="30" ry="6" fill="#2d3436" opacity="0.08" transform="rotate(-3 102 165)"/>
  
  <!-- Subtle confusion sparkles -->
  <circle cx="75" cy="77" r="0.5" fill="#74b9ff" opacity="0.4">
    <animate attributeName="opacity" values="0.4;0.6;0.4" dur="3.5s" repeatCount="indefinite"/>
  </circle>
  <circle cx="125" cy="82" r="0.4" fill="#0984e3" opacity="0.3">
    <animate attributeName="opacity" values="0.3;0.5;0.3" dur="3.2s" repeatCount="indefinite"/>
  </circle>
  <circle cx="110" cy="68" r="0.3" fill="#636e72" opacity="0.2">
    <animate attributeName="opacity" values="0.2;0.4;0.2" dur="3.8s" repeatCount="indefinite"/>
  </circle>
  
  <!-- Subtle puzzlement wisps -->
  <path d="M 72 86 Q 77 83 82 86" stroke="#74b9ff" stroke-width="0.3" fill="none" opacity="0.3">
    <animate attributeName="opacity" values="0.3;0.5;0.3" dur="4s" repeatCount="indefinite"/>
  </path>
  <path d="M 118 86 Q 123 83 128 86" stroke="#0984e3" stroke-width="0.3" fill="none" opacity="0.3">
    <animate attributeName="opacity" values="0.3;0.5;0.3" dur="3.7s" repeatCount="indefinite"/>
  </path>
  
  <!-- Thinking indicators -->
  <circle cx="130" cy="70" r="1" fill="#74b9ff" opacity="0.3">
    <animate attributeName="opacity" values="0.3;0.6;0.3" dur="2s" repeatCount="indefinite"/>
  </circle>
  <circle cx="135" cy="65" r="0.8" fill="#0984e3" opacity="0.2">
    <animate attributeName="opacity" values="0.2;0.5;0.2" dur="2.3s" repeatCount="indefinite"/>
  </circle>
  <circle cx="140" cy="60" r="0.6" fill="#636e72" opacity="0.1">
    <animate attributeName="opacity" values="0.1;0.4;0.1" dur="2.6s" repeatCount="indefinite"/>
  </circle>
</svg>