<svg width="200" height="200" viewBox="0 0 200 200" xmlns="http://www.w3.org/2000/svg">
  <!-- Face circle -->
  <circle cx="100" cy="100" r="80" fill="#F0FDF4" stroke="#22C55E" stroke-width="2"/>
  
  <!-- Eyebrows (slightly furrowed) -->
  <path d="M 65 70 L 85 75" stroke="#374151" stroke-width="3" stroke-linecap="round"/>
  <path d="M 135 70 L 115 75" stroke="#374151" stroke-width="3" stroke-linecap="round"/>
  
  <!-- Eyes (squinted) -->
  <path d="M 65 80 Q 75 85 85 80" stroke="#374151" stroke-width="3" fill="none"/>
  <path d="M 115 80 Q 125 85 135 80" stroke="#374151" stroke-width="3" fill="none"/>
  
  <!-- Nose (wrinkled) -->
  <ellipse cx="100" cy="100" rx="4" ry="6" fill="#22C55E"/>
  <path d="M 95 95 Q 100 90 105 95" stroke="#374151" stroke-width="2" fill="none"/>
  
  <!-- Mouth (disgusted) -->
  <path d="M 85 125 Q 90 120 95 125 Q 100 130 105 125 Q 110 120 115 125" stroke="#374151" stroke-width="3" fill="none"/>
  
  <!-- Wrinkle lines -->
  <path d="M 90 105 Q 95 100 100 105" stroke="#374151" stroke-width="1" fill="none"/>
  <path d="M 100 105 Q 105 100 110 105" stroke="#374151" stroke-width="1" fill="none"/>
</svg>