<svg width="200" height="200" viewBox="0 0 200 200" xmlns="http://www.w3.org/2000/svg">
  <defs>
    <!-- Face gradient with nausea pallor -->
    <radialGradient id="faceGradientIntenseDisgust" cx="0.4" cy="0.3" r="0.8">
      <stop offset="0%" stop-color="#e8f0d8"/>
      <stop offset="70%" stop-color="#d8e8c8"/>
      <stop offset="100%" stop-color="#c8d8b8"/>
    </radialGradient>
    
    <!-- Intense revulsion aura -->
    <radialGradient id="intenseRevulsionAura" cx="0.5" cy="0.3" r="0.9">
      <stop offset="0%" stop-color="rgba(180,200,150,0.3)"/>
      <stop offset="100%" stop-color="rgba(160,180,130,0.4)"/>
    </radialGradient>
    
    <!-- Eye gradient (squinted with disgust) -->
    <radialGradient id="eyeGradientSquinted" cx="0.3" cy="0.3" r="0.8">
      <stop offset="0%" stop-color="#ffffff"/>
      <stop offset="60%" stop-color="#f8f8f8"/>
      <stop offset="100%" stop-color="#f0f0f0"/>
    </radialGradient>
    
    <!-- Nausea energy -->
    <radialGradient id="nauseaEnergy" cx="0.5" cy="0.4" r="0.8">
      <stop offset="0%" stop-color="rgba(170,190,140,0.2)"/>
      <stop offset="100%" stop-color="rgba(150,170,120,0.3)"/>
    </radialGradient>
    
    <!-- Gag reflex -->
    <radialGradient id="gagReflex" cx="0.5" cy="0.6" r="0.6">
      <stop offset="0%" stop-color="rgba(160,180,130,0.2)"/>
      <stop offset="100%" stop-color="rgba(140,160,110,0.3)"/>
    </radialGradient>
    
    <!-- Wrinkle gradient -->
    <radialGradient id="wrinkleGradient" cx="0.3" cy="0.3" r="0.8">
      <stop offset="0%" stop-color="rgba(120,140,100,0.6)"/>
      <stop offset="100%" stop-color="rgba(100,120,80,0.4)"/>
    </radialGradient>
  </defs>
  
  <!-- Intense revulsion aura -->
  <ellipse cx="100" cy="105" rx="95" ry="105" fill="url(#intenseRevulsionAura)"/>
  
  <!-- Nausea energy bursts -->
  <ellipse cx="100" cy="105" rx="80" ry="90" fill="url(#nauseaEnergy)"/>
  
  <!-- Gag reflex energy -->
  <ellipse cx="100" cy="125" rx="70" ry="60" fill="url(#gagReflex)"/>
  
  <!-- Face outline (turned away in disgust) -->
  <ellipse cx="100" cy="105" rx="70" ry="80" fill="url(#faceGradientIntenseDisgust)" stroke="#c0d0a0" stroke-width="2"/>
  
  <!-- Hair (slightly disheveled from recoiling) -->
  <path d="M25 50 Q45 5 100 10 Q155 5 175 50 Q165 25 100 20 Q35 25 25 50" fill="#8b5a3c" stroke="#6d4428" stroke-width="0.5"/>
  <path d="M45 35 Q60 25 75 30" stroke="#9d6b4a" stroke-width="1" fill="none" opacity="0.6"/>
  <path d="M125 30 Q140 25 155 35" stroke="#9d6b4a" stroke-width="1" fill="none" opacity="0.6"/>
  <!-- Recoiling hair strands -->
  <path d="M35 40 Q40 25 45 40" stroke="#9d6b4a" stroke-width="0.8" fill="none" opacity="0.5"/>
  <path d="M155 40 Q160 25 165 40" stroke="#9d6b4a" stroke-width="0.8" fill="none" opacity="0.5"/>
  
  <!-- Eyebrows (extremely furrowed and lowered) -->
  <path d="M60 75 Q70 70 80 73" stroke="#5d3428" stroke-width="4" fill="none" stroke-linecap="round"/>
  <path d="M120 73 Q130 70 140 75" stroke="#5d3428" stroke-width="4" fill="none" stroke-linecap="round"/>
  
  <!-- Deep disgust frown lines -->
  <path d="M90 58 Q100 55 110 58" stroke="url(#wrinkleGradient)" stroke-width="1.5" fill="none" opacity="0.8"/>
  <path d="M92 61 Q100 58 108 61" stroke="url(#wrinkleGradient)" stroke-width="1.2" fill="none" opacity="0.7"/>
  <path d="M94 64 Q100 61 106 64" stroke="#c0d0a0" stroke-width="1" fill="none" opacity="0.6"/>
  
  <!-- Eyes (extremely squinted) -->
  <ellipse cx="75" cy="85" rx="6" ry="4" fill="url(#eyeGradientSquinted)" stroke="#c0d0a0" stroke-width="1"/>
  <ellipse cx="125" cy="85" rx="6" ry="4" fill="url(#eyeGradientSquinted)" stroke="#c0d0a0" stroke-width="1"/>
  
  <!-- Upper eyelids (heavily lowered) -->
  <path d="M69 82 Q75 79 81 82" stroke="#c0d0a0" stroke-width="2" fill="none"/>
  <path d="M119 82 Q125 79 131 82" stroke="#c0d0a0" stroke-width="2" fill="none"/>
  
  <!-- Lower eyelids (pushed up from squinting) -->
  <path d="M69 88 Q75 91 81 88" stroke="#d0e0b0" stroke-width="1.5" fill="none" opacity="0.8"/>
  <path d="M119 88 Q125 91 131 88" stroke="#d0e0b0" stroke-width="1.5" fill="none" opacity="0.8"/>
  
  <!-- Pupils (barely visible) -->
  <circle cx="75" cy="85" r="2" fill="#2c1810"/>
  <circle cx="125" cy="85" r="2" fill="#2c1810"/>
  
  <!-- Eye highlights (disgusted) -->
  <circle cx="76" cy="84" r="0.5" fill="#ffffff" opacity="0.8"/>
  <circle cx="126" cy="84" r="0.5" fill="#ffffff" opacity="0.8"/>
  
  <!-- Crow's feet from squinting -->
  <path d="M81 83 Q86 78 90 85" stroke="#d0e0b0" stroke-width="1" fill="none" opacity="0.6"/>
  <path d="M81 87 Q86 92 90 85" stroke="#d0e0b0" stroke-width="1" fill="none" opacity="0.6"/>
  <path d="M131 83 Q136 78 140 85" stroke="#d0e0b0" stroke-width="1" fill="none" opacity="0.6"/>
  <path d="M131 87 Q136 92 140 85" stroke="#d0e0b0" stroke-width="1" fill="none" opacity="0.6"/>
  
  <!-- Nose (extremely wrinkled and scrunched) -->
  <path d="M90 90 L100 105 L110 90" stroke="#c0d0a0" stroke-width="2.5" fill="none" stroke-linecap="round"/>
  <ellipse cx="96" cy="102" rx="2" ry="2.5" fill="#c0d0a0" opacity="0.6"/>
  <ellipse cx="104" cy="102" rx="2" ry="2.5" fill="#c0d0a0" opacity="0.6"/>
  
  <!-- Extreme nose wrinkles -->
  <path d="M92 95 Q95 92 98 95 Q100 92 102 95 Q105 92 108 95" stroke="url(#wrinkleGradient)" stroke-width="1.5" fill="none" opacity="0.8"/>
  <path d="M94 98 Q97 95 100 98 Q103 95 106 98" stroke="url(#wrinkleGradient)" stroke-width="1.2" fill="none" opacity="0.7"/>
  <path d="M96 101 Q98 98 100 101 Q102 98 104 101" stroke="#b0c090" stroke-width="1" fill="none" opacity="0.6"/>
  
  <!-- Mouth (gagging expression) -->
  <ellipse cx="100" cy="130" rx="12" ry="8" fill="#a0b080" stroke="#c0d0a0" stroke-width="2"/>
  
  <!-- Tongue visible (gagging) -->
  <ellipse cx="100" cy="132" rx="8" ry="4" fill="#e8a8a8" stroke="#d09090" stroke-width="0.8" opacity="0.9"/>
  
  <!-- Lip definition (stretched in disgust) -->
  <path d="M88 127 Q100 124 112 127" stroke="#d0e0b0" stroke-width="1.5" fill="none" opacity="0.8"/>
  
  <!-- Extreme mouth corners -->
  <path d="M85 132 Q88 138 92 132" stroke="#d0e0b0" stroke-width="1.5" fill="none" opacity="0.7"/>
  <path d="M108 132 Q112 138 115 132" stroke="#d0e0b0" stroke-width="1.5" fill="none" opacity="0.7"/>
  
  <!-- Deep nasolabial folds -->
  <path d="M110 105 Q120 115 118 125" stroke="#d0e0b0" stroke-width="2" fill="none" opacity="0.8"/>
  <path d="M90 105 Q80 115 82 125" stroke="#d0e0b0" stroke-width="2" fill="none" opacity="0.8"/>
  
  <!-- Cheek tension (pulled back) -->
  <path d="M125 110 Q135 115 130 125" stroke="#e0f0c0" stroke-width="1.5" fill="none" opacity="0.6"/>
  <path d="M75 110 Q65 115 70 125" stroke="#e0f0c0" stroke-width="1.5" fill="none" opacity="0.6"/>
  
  <!-- Additional disgust lines -->
  <path d="M75 120 Q80 125 85 120" stroke="#d0e0b0" stroke-width="1" fill="none" opacity="0.5"/>
  <path d="M115 120 Q120 125 125 120" stroke="#d0e0b0" stroke-width="1" fill="none" opacity="0.5"/>
  
  <!-- Jaw tension (clenched to prevent gagging) -->
  <path d="M75 150 Q100 153 125 150" stroke="#d0e0b0" stroke-width="2" fill="none" opacity="0.7"/>
  
  <!-- Neck tension (swallowing reflex) -->
  <path d="M85 175 Q100 178 115 175" stroke="#e0f0c0" stroke-width="1.5" fill="none" opacity="0.5"/>
  <path d="M90 180 Q100 183 110 180" stroke="#e0f0c0" stroke-width="1.2" fill="none" opacity="0.4"/>
  
  <!-- Nausea waves -->
  <path d="M25 90 Q35 80 45 90 Q55 100 65 90" stroke="rgba(160,180,130,0.5)" stroke-width="2" fill="none" opacity="0.6"/>
  <path d="M135 90 Q145 80 155 90 Q165 100 175 90" stroke="rgba(160,180,130,0.5)" stroke-width="2" fill="none" opacity="0.6"/>
  
  <!-- Revulsion energy bursts -->
  <path d="M20 110 Q30 100 40 110" stroke="rgba(150,170,120,0.4)" stroke-width="1.5" fill="none" opacity="0.5"/>
  <path d="M160 110 Q170 100 180 110" stroke="rgba(150,170,120,0.4)" stroke-width="1.5" fill="none" opacity="0.5"/>
  
  <!-- Gag reflex lines -->
  <path d="M15 130 Q25 120 35 130" stroke="rgba(140,160,110,0.3)" stroke-width="1.5" fill="none"/>
  <path d="M165 130 Q175 120 185 130" stroke="rgba(140,160,110,0.3)" stroke-width="1.5" fill="none"/>
  
  <!-- Heavy shadow (recoiling) -->
  <ellipse cx="100" cy="175" rx="60" ry="12" fill="rgba(150,170,120,0.3)"/>
  
  <!-- Intense revulsion aura -->
  <ellipse cx="100" cy="105" rx="72" ry="82" fill="none" stroke="rgba(160,180,130,0.4)" stroke-width="2"/>
  
  <!-- Nausea sparks -->
  <circle cx="25" cy="95" r="1.5" fill="rgba(160,180,130,0.7)"/>
  <circle cx="175" cy="100" r="1.2" fill="rgba(160,180,130,0.6)"/>
  <circle cx="20" cy="125" r="1" fill="rgba(160,180,130,0.5)"/>
  <circle cx="180" cy="120" r="0.8" fill="rgba(160,180,130,0.4)"/>
</svg>