<svg viewBox="0 0 200 200" xmlns="http://www.w3.org/2000/svg">
  <!-- Intense Pride: Arrogance, very raised chin, triumphant smile, superiority aura -->
  
  <!-- Definitions for gradients and effects -->
  <defs>
    <!-- Face gradient with arrogant glow -->
    <radialGradient id="faceGradientIntense" cx="50%" cy="35%" r="65%">
      <stop offset="0%" stop-color="#fdcb6e" stop-opacity="1"/>
      <stop offset="60%" stop-color="#e17055" stop-opacity="0.9"/>
      <stop offset="100%" stop-color="#d63031" stop-opacity="0.8"/>
    </radialGradient>
    
    <!-- Eye gradient with superior gleam -->
    <radialGradient id="eyeGradientIntense" cx="25%" cy="25%" r="75%">
      <stop offset="0%" stop-color="#00b894" stop-opacity="1"/>
      <stop offset="40%" stop-color="#00a085" stop-opacity="0.9"/>
      <stop offset="100%" stop-color="#2d3436" stop-opacity="1"/>
    </radialGradient>
    
    <!-- Intense superiority aura -->
    <radialGradient id="superiorityAura" cx="50%" cy="40%" r="90%">
      <stop offset="0%" stop-color="#fdcb6e" stop-opacity="0.3"/>
      <stop offset="40%" stop-color="#e17055" stop-opacity="0.2"/>
      <stop offset="70%" stop-color="#d63031" stop-opacity="0.1"/>
      <stop offset="100%" stop-color="#74b9ff" stop-opacity="0.05"/>
    </radialGradient>
    
    <!-- Arrogance glow filter -->
    <filter id="arroganceGlow">
      <feGaussianBlur stdDeviation="3" result="coloredBlur"/>
      <feMerge>
        <feMergeNode in="coloredBlur"/>
        <feMergeNode in="SourceGraphic"/>
      </feMerge>
    </filter>
    
    <!-- Superiority energy filter -->
    <filter id="superiorityEnergy">
      <feGaussianBlur stdDeviation="1.5" result="glowBlur"/>
      <feColorMatrix in="glowBlur" values="1 0 0 0 0.9  0 1 0 0 0.8  0 0 1 0 0.4  0 0 0 1 0"/>
      <feMerge>
        <feMergeNode in="coloredBlur"/>
        <feMergeNode in="SourceGraphic"/>
      </feMerge>
    </filter>
  </defs>
  
  <!-- Background aura of superiority -->
  <circle cx="100" cy="90" r="98" fill="url(#superiorityAura)" opacity="0.8"/>
  
  <!-- Superiority energy bursts -->
  <g opacity="0.6">
    <path d="M 100 30 L 105 45 L 95 45 Z" fill="#fdcb6e">
      <animateTransform attributeName="transform" type="rotate" values="0 100 90;360 100 90" dur="8s" repeatCount="indefinite"/>
    </path>
    <path d="M 140 60 L 145 75 L 135 75 Z" fill="#e17055">
      <animateTransform attributeName="transform" type="rotate" values="45 100 90;405 100 90" dur="6s" repeatCount="indefinite"/>
    </path>
    <path d="M 60 60 L 65 75 L 55 75 Z" fill="#d63031">
      <animateTransform attributeName="transform" type="rotate" values="90 100 90;450 100 90" dur="7s" repeatCount="indefinite"/>
    </path>
  </g>
  
  <!-- Face shape with very raised chin position -->
  <ellipse cx="100" cy="85" rx="48" ry="52" fill="url(#faceGradientIntense)" stroke="#d63031" stroke-width="1.5" filter="url(#arroganceGlow)"/>
  
  <!-- Hair with perfectly styled, superior appearance -->
  <path d="M 52 60 Q 75 35 100 40 Q 125 35 148 60 Q 145 45 125 50 Q 100 45 75 50 Q 55 45 52 60" 
        fill="#6c5ce7" stroke="#a29bfe" stroke-width="1.5" filter="url(#superiorityEnergy)"/>
  
  <!-- Additional hair volume showing superiority -->
  <path d="M 60 55 Q 80 40 100 45 Q 120 40 140 55" stroke="#a29bfe" stroke-width="2" fill="none" opacity="0.7"/>
  
  <!-- Eyebrows with arrogant arch (very raised and condescending) -->
  <path d="M 72 70 Q 85 65 98 70" stroke="#2d3436" stroke-width="3" fill="none" stroke-linecap="round"/>
  <path d="M 102 70 Q 115 65 128 70" stroke="#2d3436" stroke-width="3" fill="none" stroke-linecap="round"/>
  
  <!-- Forehead lines showing superiority -->
  <path d="M 80 65 Q 100 62 120 65" stroke="#b2bec3" stroke-width="1" fill="none" opacity="0.6"/>
  
  <!-- Eyes with condescending, superior gaze (looking down) -->
  <ellipse cx="85" cy="80" rx="9" ry="5" fill="url(#eyeGradientIntense)"/>
  <ellipse cx="115" cy="80" rx="9" ry="5" fill="url(#eyeGradientIntense)"/>
  
  <!-- Upper eyelids showing condescension -->
  <path d="M 76 78 Q 85 76 94 78" stroke="#2d3436" stroke-width="1.5" fill="none"/>
  <path d="M 106 78 Q 115 76 124 78" stroke="#2d3436" stroke-width="1.5" fill="none"/>
  
  <!-- Pupils looking down condescendingly -->
  <circle cx="85" cy="82" r="3.5" fill="#2d3436"/>
  <circle cx="115" cy="82" r="3.5" fill="#2d3436"/>
  
  <!-- Eye highlights showing superiority -->
  <circle cx="87" cy="80" r="2" fill="#ffffff" opacity="0.9"/>
  <circle cx="117" cy="80" r="2" fill="#ffffff" opacity="0.9"/>
  
  <!-- Arrogant eye lines -->
  <path d="M 94 82 Q 98 85 102 82" stroke="#00b894" stroke-width="1" fill="none" opacity="0.7"/>
  <path d="M 98 82 Q 102 85 106 82" stroke="#00b894" stroke-width="1" fill="none" opacity="0.7"/>
  
  <!-- Nose with superior flare -->
  <path d="M 100 90 L 97 102 L 100 105 L 103 102 Z" fill="#e17055" stroke="#d63031" stroke-width="0.8"/>
  
  <!-- Nostril flare showing arrogance -->
  <ellipse cx="97" cy="100" rx="2" ry="1.5" fill="#2d3436" opacity="0.6"/>
  <ellipse cx="103" cy="100" rx="2" ry="1.5" fill="#2d3436" opacity="0.6"/>
  
  <!-- Mouth with triumphant, arrogant smile -->
  <path d="M 85 110 Q 100 118 115 110" stroke="#2d3436" stroke-width="3" fill="none" stroke-linecap="round"/>
  
  <!-- Lip definition with superiority -->
  <path d="M 87 110 Q 100 116 113 110" stroke="#e17055" stroke-width="2" fill="none" opacity="0.8"/>
  
  <!-- Triumphant mouth corners -->
  <circle cx="85" cy="110" r="1.5" fill="#d63031" opacity="0.8"/>
  <circle cx="115" cy="110" r="1.5" fill="#d63031" opacity="0.8"/>
  
  <!-- Deep nasolabial folds from arrogant expression -->
  <path d="M 85 100 Q 88 105 90 110" stroke="#b2bec3" stroke-width="1.2" fill="none" opacity="0.7"/>
  <path d="M 115 100 Q 112 105 110 110" stroke="#b2bec3" stroke-width="1.2" fill="none" opacity="0.7"/>
  
  <!-- Cheek definition with superior lift -->
  <ellipse cx="72" cy="95" rx="10" ry="15" fill="#e17055" opacity="0.5"/>
  <ellipse cx="128" cy="95" rx="10" ry="15" fill="#e17055" opacity="0.5"/>
  
  <!-- Additional superiority lines -->
  <path d="M 75 90 Q 80 95 85 90" stroke="#d63031" stroke-width="0.8" fill="none" opacity="0.5"/>
  <path d="M 115 90 Q 120 95 125 90" stroke="#d63031" stroke-width="0.8" fill="none" opacity="0.5"/>
  
  <!-- Very raised chin with arrogant definition -->
  <ellipse cx="100" cy="125" rx="18" ry="10" fill="#e17055" opacity="0.6"/>
  
  <!-- Jawline showing supreme confidence -->
  <path d="M 65 115 Q 85 130 100 132 Q 115 130 135 115" stroke="#d63031" stroke-width="1.2" fill="none" opacity="0.7"/>
  
  <!-- Neck with very upright, superior posture -->
  <rect x="88" y="135" width="24" height="18" fill="#fdcb6e" stroke="#e17055" stroke-width="1" opacity="0.9"/>
  
  <!-- Superiority energy lines -->
  <g opacity="0.6">
    <path d="M 90 85 Q 100 88 110 85" stroke="#fdcb6e" stroke-width="1" fill="none">
      <animate attributeName="opacity" values="0.6;1;0.6" dur="2s" repeatCount="indefinite"/>
    </path>
    <path d="M 80 95 Q 90 98 100 95" stroke="#e17055" stroke-width="0.8" fill="none">
      <animate attributeName="opacity" values="0.4;0.8;0.4" dur="2.5s" repeatCount="indefinite"/>
    </path>
    <path d="M 100 95 Q 110 98 120 95" stroke="#d63031" stroke-width="0.8" fill="none">
      <animate attributeName="opacity" values="0.4;0.8;0.4" dur="3s" repeatCount="indefinite"/>
    </path>
  </g>
  
  <!-- Heavy shadow showing dominance -->
  <ellipse cx="100" cy="165" rx="45" ry="12" fill="#2d3436" opacity="0.3"/>
  
  <!-- Intense superiority aura -->
  <circle cx="100" cy="85" r="70" fill="none" stroke="#fdcb6e" stroke-width="2" opacity="0.4">
    <animate attributeName="r" values="70;75;70" dur="4s" repeatCount="indefinite"/>
    <animate attributeName="opacity" values="0.4;0.6;0.4" dur="4s" repeatCount="indefinite"/>
  </circle>
  
  <!-- Arrogance sparks -->
  <g opacity="0.7">
    <circle cx="60" cy="65" r="1.5" fill="#fdcb6e">
      <animate attributeName="opacity" values="0.7;1;0.7" dur="1.5s" repeatCount="indefinite"/>
    </circle>
    <circle cx="140" cy="70" r="1.2" fill="#e17055">
      <animate attributeName="opacity" values="0.5;0.9;0.5" dur="2s" repeatCount="indefinite"/>
    </circle>
    <circle cx="120" cy="50" r="1" fill="#d63031">
      <animate attributeName="opacity" values="0.6;1;0.6" dur="1.8s" repeatCount="indefinite"/>
    </circle>
    <circle cx="80" cy="55" r="0.8" fill="#00b894">
      <animate attributeName="opacity" values="0.4;0.8;0.4" dur="2.2s" repeatCount="indefinite"/>
    </circle>
  </g>
</svg>