<svg viewBox="0 0 200 200" xmlns="http://www.w3.org/2000/svg">
  <!-- Mild Pride: Discrete satisfaction, subtle smile, slightly straightened posture -->
  
  <!-- Definitions for gradients and effects -->
  <defs>
    <!-- Face gradient with warm satisfaction -->
    <radialGradient id="faceGradientMild" cx="50%" cy="40%" r="60%">
      <stop offset="0%" stop-color="#ffeaa7" stop-opacity="0.9"/>
      <stop offset="70%" stop-color="#fdcb6e" stop-opacity="0.8"/>
      <stop offset="100%" stop-color="#e17055" stop-opacity="0.7"/>
    </radialGradient>
    
    <!-- Eye gradient with confident gleam -->
    <radialGradient id="eyeGradientMild" cx="30%" cy="30%" r="70%">
      <stop offset="0%" stop-color="#74b9ff" stop-opacity="0.9"/>
      <stop offset="50%" stop-color="#0984e3" stop-opacity="0.8"/>
      <stop offset="100%" stop-color="#2d3436" stop-opacity="0.9"/>
    </radialGradient>
    
    <!-- Subtle satisfaction aura -->
    <radialGradient id="satisfactionAura" cx="50%" cy="50%" r="80%">
      <stop offset="0%" stop-color="#fdcb6e" stop-opacity="0.1"/>
      <stop offset="50%" stop-color="#e17055" stop-opacity="0.05"/>
      <stop offset="100%" stop-color="#d63031" stop-opacity="0.02"/>
    </radialGradient>
    
    <!-- Confidence glow filter -->
    <filter id="confidenceGlow">
      <feGaussianBlur stdDeviation="2" result="coloredBlur"/>
      <feMerge>
        <feMergeNode in="coloredBlur"/>
        <feMergeNode in="SourceGraphic"/>
      </feMerge>
    </filter>
  </defs>
  
  <!-- Background aura of satisfaction -->
  <circle cx="100" cy="100" r="95" fill="url(#satisfactionAura)" opacity="0.6"/>
  
  <!-- Face shape with confident posture -->
  <ellipse cx="100" cy="95" rx="45" ry="50" fill="url(#faceGradientMild)" stroke="#ddd" stroke-width="1"/>
  
  <!-- Hair with neat, composed style -->
  <path d="M 55 65 Q 70 45 100 50 Q 130 45 145 65 Q 140 55 120 60 Q 100 55 80 60 Q 60 55 55 65" 
        fill="#6c5ce7" stroke="#a29bfe" stroke-width="1"/>
  
  <!-- Eyebrows with subtle confidence (slightly raised) -->
  <path d="M 75 75 Q 85 72 95 75" stroke="#2d3436" stroke-width="2.5" fill="none" stroke-linecap="round"/>
  <path d="M 105 75 Q 115 72 125 75" stroke="#2d3436" stroke-width="2.5" fill="none" stroke-linecap="round"/>
  
  <!-- Eyes with confident, direct gaze -->
  <ellipse cx="85" cy="85" rx="8" ry="6" fill="url(#eyeGradientMild)"/>
  <ellipse cx="115" cy="85" rx="8" ry="6" fill="url(#eyeGradientMild)"/>
  
  <!-- Pupils looking straight ahead with confidence -->
  <circle cx="85" cy="85" r="3" fill="#2d3436"/>
  <circle cx="115" cy="85" r="3" fill="#2d3436"/>
  
  <!-- Eye highlights showing satisfaction -->
  <circle cx="87" cy="83" r="1.5" fill="#ffffff" opacity="0.8"/>
  <circle cx="117" cy="83" r="1.5" fill="#ffffff" opacity="0.8"/>
  
  <!-- Subtle satisfaction lines around eyes -->
  <path d="M 93 87 Q 96 89 99 87" stroke="#b2bec3" stroke-width="0.8" fill="none" opacity="0.6"/>
  <path d="M 101 87 Q 104 89 107 87" stroke="#b2bec3" stroke-width="0.8" fill="none" opacity="0.6"/>
  
  <!-- Nose with refined definition -->
  <path d="M 100 95 L 98 105 L 100 107 L 102 105 Z" fill="#e17055" stroke="#d63031" stroke-width="0.5"/>
  
  <!-- Mouth with subtle, satisfied smile -->
  <path d="M 90 115 Q 100 120 110 115" stroke="#2d3436" stroke-width="2" fill="none" stroke-linecap="round"/>
  
  <!-- Lip definition with discrete satisfaction -->
  <path d="M 92 115 Q 100 118 108 115" stroke="#e17055" stroke-width="1" fill="none" opacity="0.7"/>
  
  <!-- Subtle mouth corners showing contentment -->
  <circle cx="90" cy="115" r="1" fill="#d63031" opacity="0.5"/>
  <circle cx="110" cy="115" r="1" fill="#d63031" opacity="0.5"/>
  
  <!-- Gentle nasolabial folds -->
  <path d="M 88 105 Q 90 110 92 115" stroke="#b2bec3" stroke-width="0.8" fill="none" opacity="0.4"/>
  <path d="M 112 105 Q 110 110 108 115" stroke="#b2bec3" stroke-width="0.8" fill="none" opacity="0.4"/>
  
  <!-- Cheek definition with subtle lift -->
  <ellipse cx="75" cy="100" rx="8" ry="12" fill="#e17055" opacity="0.3"/>
  <ellipse cx="125" cy="100" rx="8" ry="12" fill="#e17055" opacity="0.3"/>
  
  <!-- Chin with confident definition -->
  <ellipse cx="100" cy="130" rx="15" ry="8" fill="#e17055" opacity="0.4"/>
  
  <!-- Jawline showing composure -->
  <path d="M 70 120 Q 85 135 100 135 Q 115 135 130 120" stroke="#d63031" stroke-width="0.8" fill="none" opacity="0.5"/>
  
  <!-- Neck with upright posture -->
  <rect x="90" y="140" width="20" height="15" fill="#fdcb6e" stroke="#e17055" stroke-width="0.5" opacity="0.8"/>
  
  <!-- Subtle confidence lines -->
  <path d="M 95 90 Q 100 92 105 90" stroke="#ffffff" stroke-width="0.5" fill="none" opacity="0.4"/>
  <path d="M 85 100 Q 90 102 95 100" stroke="#ffffff" stroke-width="0.5" fill="none" opacity="0.3"/>
  <path d="M 105 100 Q 110 102 115 100" stroke="#ffffff" stroke-width="0.5" fill="none" opacity="0.3"/>
  
  <!-- Gentle shadow for depth -->
  <ellipse cx="100" cy="160" rx="35" ry="8" fill="#2d3436" opacity="0.1"/>
  
  <!-- Subtle satisfaction sparkles -->
  <circle cx="70" cy="70" r="1" fill="#fdcb6e" opacity="0.6">
    <animate attributeName="opacity" values="0.6;0.9;0.6" dur="3s" repeatCount="indefinite"/>
  </circle>
  <circle cx="130" cy="75" r="0.8" fill="#e17055" opacity="0.5">
    <animate attributeName="opacity" values="0.5;0.8;0.5" dur="2.5s" repeatCount="indefinite"/>
  </circle>
  <circle cx="110" cy="60" r="0.6" fill="#d63031" opacity="0.4">
    <animate attributeName="opacity" values="0.4;0.7;0.4" dur="3.5s" repeatCount="indefinite"/>
  </circle>
</svg>