<svg viewBox="0 0 200 200" xmlns="http://www.w3.org/2000/svg">
  <!-- Intense Embarrassment: Extreme embarrassment, intense blushing, hunched posture -->
  
  <!-- Definitions for gradients and effects -->
  <defs>
    <!-- Face gradient with intense blush -->
    <radialGradient id="faceGradientIntense" cx="50%" cy="45%" r="60%">
      <stop offset="0%" stop-color="#ff7675" stop-opacity="0.9"/>
      <stop offset="60%" stop-color="#e17055" stop-opacity="0.8"/>
      <stop offset="100%" stop-color="#d63031" stop-opacity="0.7"/>
    </radialGradient>
    
    <!-- Eye gradient with extreme shame -->
    <radialGradient id="eyeGradientIntense" cx="30%" cy="60%" r="50%">
      <stop offset="0%" stop-color="#74b9ff" stop-opacity="0.6"/>
      <stop offset="50%" stop-color="#0984e3" stop-opacity="0.5"/>
      <stop offset="100%" stop-color="#2d3436" stop-opacity="0.9"/>
    </radialGradient>
    
    <!-- Intense embarrassment aura -->
    <radialGradient id="embarrassmentAuraIntense" cx="50%" cy="50%" r="80%">
      <stop offset="0%" stop-color="#ff7675" stop-opacity="0.3"/>
      <stop offset="50%" stop-color="#e17055" stop-opacity="0.2"/>
      <stop offset="100%" stop-color="#d63031" stop-opacity="0.1"/>
    </radialGradient>
    
    <!-- Intense blush gradient -->
    <radialGradient id="blushGradientIntense" cx="50%" cy="50%" r="70%">
      <stop offset="0%" stop-color="#ff7675" stop-opacity="0.8"/>
      <stop offset="50%" stop-color="#e17055" stop-opacity="0.6"/>
      <stop offset="100%" stop-color="#d63031" stop-opacity="0.4"/>
    </radialGradient>
    
    <!-- Shame glow filter -->
    <filter id="shameGlow">
      <feGaussianBlur stdDeviation="2.5" result="coloredBlur"/>
      <feMerge>
        <feMergeNode in="coloredBlur"/>
        <feMergeNode in="SourceGraphic"/>
      </feMerge>
    </filter>
    
    <!-- Heat wave effect -->
    <filter id="heatWave">
      <feTurbulence baseFrequency="0.02" numOctaves="3" result="noise"/>
      <feDisplacementMap in="SourceGraphic" in2="noise" scale="1.5"/>
    </filter>
  </defs>
  
  <!-- Background aura of intense embarrassment -->
  <circle cx="100" cy="100" r="95" fill="url(#embarrassmentAuraIntense)" opacity="0.7"/>
  
  <!-- Heat waves around face -->
  <ellipse cx="100" cy="95" rx="55" ry="60" fill="none" stroke="#ff7675" stroke-width="0.8" opacity="0.3" filter="url(#heatWave)"/>
  <ellipse cx="100" cy="95" rx="50" ry="55" fill="none" stroke="#e17055" stroke-width="0.6" opacity="0.2" filter="url(#heatWave)"/>
  
  <!-- Face shape with hunched, lowered position -->
  <ellipse cx="100" cy="102" rx="42" ry="46" fill="url(#faceGradientIntense)" stroke="#d63031" stroke-width="1.5" transform="rotate(-3 100 102)"/>
  
  <!-- Hair disheveled from shame -->
  <path d="M 58 72 Q 70 45 100 50 Q 130 45 142 72 Q 138 55 115 60 Q 100 55 85 60 Q 62 55 58 72" 
        fill="#6c5ce7" stroke="#a29bfe" stroke-width="1.2"/>
  
  <!-- Extremely disheveled hair strands -->
  <path d="M 62 58 Q 68 50 78 58" stroke="#a29bfe" stroke-width="2" fill="none" opacity="0.8"/>
  <path d="M 122 58 Q 132 50 138 58" stroke="#a29bfe" stroke-width="2" fill="none" opacity="0.8"/>
  <path d="M 75 55 Q 80 48 88 55" stroke="#a29bfe" stroke-width="1.5" fill="none" opacity="0.6"/>
  <path d="M 112 55 Q 120 48 125 55" stroke="#a29bfe" stroke-width="1.5" fill="none" opacity="0.6"/>
  
  <!-- Eyebrows extremely raised in shock and shame -->
  <path d="M 74 75 Q 85 70 96 75" stroke="#2d3436" stroke-width="2.5" fill="none" stroke-linecap="round"/>
  <path d="M 104 75 Q 115 70 126 75" stroke="#2d3436" stroke-width="2.5" fill="none" stroke-linecap="round"/>
  
  <!-- Deep worry and shame lines -->
  <path d="M 86 73 Q 90 68 94 73" stroke="#b2bec3" stroke-width="1.2" fill="none" opacity="0.7"/>
  <path d="M 106 73 Q 110 68 114 73" stroke="#b2bec3" stroke-width="1.2" fill="none" opacity="0.7"/>
  <path d="M 88 75 Q 92 72 96 75" stroke="#b2bec3" stroke-width="0.8" fill="none" opacity="0.5"/>
  <path d="M 104 75 Q 108 72 112 75" stroke="#b2bec3" stroke-width="0.8" fill="none" opacity="0.5"/>
  
  <!-- Eyes squeezed shut or looking down in extreme shame -->
  <ellipse cx="82" cy="90" rx="6" ry="3" fill="url(#eyeGradientIntense)" transform="rotate(-5 82 90)"/>
  <ellipse cx="118" cy="90" rx="6" ry="3" fill="url(#eyeGradientIntense)" transform="rotate(5 118 90)"/>
  
  <!-- Extremely tense upper eyelids -->
  <path d="M 76 88 Q 82 85 88 88" stroke="#2d3436" stroke-width="1.5" fill="none" opacity="0.9"/>
  <path d="M 112 88 Q 118 85 124 88" stroke="#2d3436" stroke-width="1.5" fill="none" opacity="0.9"/>
  
  <!-- Pupils barely visible, looking down -->
  <circle cx="81" cy="92" r="1.5" fill="#2d3436" opacity="0.7"/>
  <circle cx="119" cy="92" r="1.5" fill="#2d3436" opacity="0.7"/>
  
  <!-- No eye highlights (shame avoidance) -->
  
  <!-- Extreme under-eye bags from stress -->
  <path d="M 76 93 Q 82 96 88 93" stroke="#b2bec3" stroke-width="1.5" fill="none" opacity="0.6"/>
  <path d="M 112 93 Q 118 96 124 93" stroke="#b2bec3" stroke-width="1.5" fill="none" opacity="0.6"/>
  
  <!-- Additional stress lines -->
  <path d="M 78 95 Q 82 97 86 95" stroke="#b2bec3" stroke-width="0.8" fill="none" opacity="0.4"/>
  <path d="M 114 95 Q 118 97 122 95" stroke="#b2bec3" stroke-width="0.8" fill="none" opacity="0.4"/>
  
  <!-- Nose with shame flare -->
  <path d="M 100 100 L 97 110 L 100 112 L 103 110 Z" fill="#e17055" stroke="#d63031" stroke-width="0.8"/>
  
  <!-- Shame breathing flare -->
  <ellipse cx="98" cy="108" rx="2" ry="1" fill="#d63031" opacity="0.6"/>
  <ellipse cx="102" cy="108" rx="2" ry="1" fill="#d63031" opacity="0.6"/>
  
  <!-- Mouth in extreme embarrassment (grimace or hidden) -->
  <path d="M 90 120 Q 100 118 110 120" stroke="#2d3436" stroke-width="2.2" fill="none" stroke-linecap="round"/>
  
  <!-- Trembling lip definition -->
  <path d="M 92 120 Q 100 119 108 120" stroke="#e17055" stroke-width="1" fill="none" opacity="0.8"/>
  
  <!-- Extreme mouth tension -->
  <circle cx="90" cy="120" r="1.2" fill="#d63031" opacity="0.7"/>
  <circle cx="110" cy="120" r="1.2" fill="#d63031" opacity="0.7"/>
  
  <!-- Mouth corners pulled down -->
  <path d="M 88 120 Q 90 122 92 120" stroke="#2d3436" stroke-width="1" fill="none" opacity="0.6"/>
  <path d="M 108 120 Q 110 122 112 120" stroke="#2d3436" stroke-width="1" fill="none" opacity="0.6"/>
  
  <!-- Deep nasolabial folds from extreme expression -->
  <path d="M 88 110 Q 90 115 92 120" stroke="#b2bec3" stroke-width="1.2" fill="none" opacity="0.6"/>
  <path d="M 112 110 Q 110 115 108 120" stroke="#b2bec3" stroke-width="1.2" fill="none" opacity="0.6"/>
  
  <!-- Intense blush covering most of face -->
  <ellipse cx="75" cy="105" rx="12" ry="15" fill="url(#blushGradientIntense)" opacity="0.9"/>
  <ellipse cx="125" cy="105" rx="12" ry="15" fill="url(#blushGradientIntense)" opacity="0.9"/>
  
  <!-- Additional intense blush areas -->
  <ellipse cx="100" cy="95" rx="25" ry="20" fill="#ff7675" opacity="0.4"/>
  <circle cx="70" cy="100" r="6" fill="#e17055" opacity="0.6"/>
  <circle cx="130" cy="100" r="6" fill="#e17055" opacity="0.6"/>
  
  <!-- Forehead blush from extreme embarrassment -->
  <ellipse cx="100" cy="80" rx="15" ry="8" fill="#ff7675" opacity="0.5"/>
  
  <!-- Cheek definition with extreme tension -->
  <ellipse cx="74" cy="108" rx="10" ry="12" fill="#e17055" opacity="0.4"/>
  <ellipse cx="126" cy="108" rx="10" ry="12" fill="#e17055" opacity="0.4"/>
  
  <!-- Chin lowered and tense -->
  <ellipse cx="100" cy="135" rx="16" ry="8" fill="#e17055" opacity="0.5"/>
  
  <!-- Jawline extremely tense -->
  <path d="M 70 125 Q 85 140 100 140 Q 115 140 130 125" stroke="#d63031" stroke-width="1" fill="none" opacity="0.6"/>
  
  <!-- Neck hunched and tense -->
  <rect x="89" y="145" width="22" height="12" fill="#fdcb6e" stroke="#e17055" stroke-width="0.8" opacity="0.8" transform="rotate(-1 100 151)"/>
  
  <!-- Head significantly tilted down in shame -->
  <g transform="rotate(-8 100 100)">
    <!-- Extreme shame lines -->
    <path d="M 92 95 Q 100 98 108 95" stroke="#ffffff" stroke-width="0.6" fill="none" opacity="0.4"/>
    <path d="M 85 105 Q 92 108 99 105" stroke="#ffffff" stroke-width="0.5" fill="none" opacity="0.3"/>
    <path d="M 101 105 Q 108 108 115 105" stroke="#ffffff" stroke-width="0.5" fill="none" opacity="0.3"/>
  </g>
  
  <!-- Heat emanation lines -->
  <path d="M 65 85 Q 70 80 75 85" stroke="#ff7675" stroke-width="1" fill="none" opacity="0.5"/>
  <path d="M 125 85 Q 130 80 135 85" stroke="#ff7675" stroke-width="1" fill="none" opacity="0.5"/>
  <path d="M 95 70 Q 100 65 105 70" stroke="#ff7675" stroke-width="0.8" fill="none" opacity="0.4"/>
  
  <!-- Sweat drops from extreme embarrassment -->
  <ellipse cx="72" cy="95" rx="1.5" ry="3" fill="#74b9ff" opacity="0.6"/>
  <ellipse cx="128" cy="95" rx="1.5" ry="3" fill="#74b9ff" opacity="0.6"/>
  <ellipse cx="85" cy="88" rx="1" ry="2" fill="#74b9ff" opacity="0.5"/>
  <ellipse cx="115" cy="88" rx="1" ry="2" fill="#74b9ff" opacity="0.5"/>
  
  <!-- Heavy shadow for hunched posture -->
  <ellipse cx="100" cy="170" rx="38" ry="8" fill="#2d3436" opacity="0.15"/>
  
  <!-- Intense embarrassment energy bursts -->
  <circle cx="68" cy="78" r="1.2" fill="#ff7675" opacity="0.7">
    <animate attributeName="opacity" values="0.7;1;0.7" dur="2s" repeatCount="indefinite"/>
  </circle>
  <circle cx="132" cy="82" r="1" fill="#e17055" opacity="0.6">
    <animate attributeName="opacity" values="0.6;0.9;0.6" dur="1.8s" repeatCount="indefinite"/>
  </circle>
  <circle cx="115" cy="68" r="0.8" fill="#d63031" opacity="0.5">
    <animate attributeName="opacity" values="0.5;0.8;0.5" dur="2.2s" repeatCount="indefinite"/>
  </circle>
  
  <!-- Shame sparks -->
  <circle cx="60" cy="90" r="0.6" fill="#ff7675" opacity="0.4">
    <animate attributeName="opacity" values="0.4;0.7;0.4" dur="3s" repeatCount="indefinite"/>
  </circle>
  <circle cx="140" cy="95" r="0.5" fill="#e17055" opacity="0.3">
    <animate attributeName="opacity" values="0.3;0.6;0.3" dur="2.5s" repeatCount="indefinite"/>
  </circle>
</svg>