<svg width="200" height="200" viewBox="0 0 200 200" xmlns="http://www.w3.org/2000/svg">
  <defs>
    <!-- Face gradient with embarrassed flush -->
    <radialGradient id="faceGradientEmbarrassment" cx="0.4" cy="0.3" r="0.8">
      <stop offset="0%" stop-color="#f8d5d0"/>
      <stop offset="70%" stop-color="#f0c4c0"/>
      <stop offset="100%" stop-color="#e8b0a8"/>
    </radialGradient>
    
    <!-- Blush gradient -->
    <radialGradient id="blushGradient" cx="0.5" cy="0.5" r="0.8">
      <stop offset="0%" stop-color="rgba(255,120,120,0.6)"/>
      <stop offset="70%" stop-color="rgba(255,140,140,0.4)"/>
      <stop offset="100%" stop-color="rgba(255,160,160,0.2)"/>
    </radialGradient>
    
    <!-- Eye gradient -->
    <radialGradient id="eyeGradient" cx="0.3" cy="0.3" r="0.8">
      <stop offset="0%" stop-color="#ffffff"/>
      <stop offset="80%" stop-color="#f8f8f8"/>
      <stop offset="100%" stop-color="#e8e8e8"/>
    </radialGradient>
    
    <!-- Discomfort shadow -->
    <radialGradient id="discomfortShadow" cx="0.5" cy="0.6" r="0.7">
      <stop offset="0%" stop-color="rgba(200,150,140,0.1)"/>
      <stop offset="100%" stop-color="rgba(160,120,110,0.3)"/>
    </radialGradient>
  </defs>
  
  <!-- Face outline with discomfort shadow -->
  <ellipse cx="100" cy="112" rx="72" ry="82" fill="url(#discomfortShadow)"/>
  <ellipse cx="100" cy="110" rx="70" ry="80" fill="url(#faceGradientEmbarrassment)" stroke="#d49080" stroke-width="1.5"/>
  
  <!-- Hair (slightly disheveled from nervousness) -->
  <path d="M30 60 Q45 18 100 23 Q155 18 170 60 Q165 38 140 32 Q120 27 100 30 Q80 27 60 32 Q35 38 30 60" fill="#8b5a3c" stroke="#6d4428" stroke-width="0.5"/>
  <path d="M50 50 Q65 45 80 48" stroke="#9d6b4a" stroke-width="0.8" fill="none" opacity="0.5"/>
  <path d="M120 48 Q135 45 150 50" stroke="#9d6b4a" stroke-width="0.8" fill="none" opacity="0.5"/>
  
  <!-- Eyebrows (raised uncertainly, asymmetrical) -->
  <path d="M58 73 Q68 69 78 73 Q75 71 70 72" stroke="#5d4037" stroke-width="3.2" fill="none" stroke-linecap="round"/>
  <path d="M122 75 Q132 71 142 75 Q135 73 130 74" stroke="#5d4037" stroke-width="3.2" fill="none" stroke-linecap="round"/>
  
  <!-- Worry lines above eyebrows -->
  <path d="M65 65 Q75 62 85 65" stroke="#e0c0a8" stroke-width="0.8" fill="none" opacity="0.6"/>
  <path d="M115 67 Q125 64 135 67" stroke="#e0c0a8" stroke-width="0.8" fill="none" opacity="0.6"/>
  
  <!-- Eyes (looking down and away, avoiding contact) -->
  <ellipse cx="70" cy="85" rx="12" ry="9" fill="url(#eyeGradient)" stroke="#d49080" stroke-width="0.8"/>
  <ellipse cx="130" cy="85" rx="12" ry="9" fill="url(#eyeGradient)" stroke="#d49080" stroke-width="0.8"/>
  
  <!-- Upper eyelids (slightly droopy from discomfort) -->
  <path d="M58 82 Q70 79 82 82" stroke="#d49080" stroke-width="1.2" fill="none"/>
  <path d="M118 82 Q130 79 142 82" stroke="#d49080" stroke-width="1.2" fill="none"/>
  
  <!-- Pupils (looking down and away) -->
  <circle cx="67" cy="89" r="4.2" fill="#2c1810"/>
  <circle cx="127" cy="89" r="4.2" fill="#2c1810"/>
  
  <!-- Eye highlights (nervous glint) -->
  <circle cx="69" cy="87" r="1.3" fill="#ffffff" opacity="0.8"/>
  <circle cx="129" cy="87" r="1.3" fill="#ffffff" opacity="0.8"/>
  
  <!-- Under-eye tension from discomfort -->
  <path d="M62 90 Q70 92 78 90" stroke="#e0c0a8" stroke-width="0.8" fill="none" opacity="0.5"/>
  <path d="M122 90 Q130 92 138 90" stroke="#e0c0a8" stroke-width="0.8" fill="none" opacity="0.5"/>
  
  <!-- Nose -->
  <path d="M95 95 L100 105 L105 95" stroke="#d49080" stroke-width="1.6" fill="none" stroke-linecap="round"/>
  <ellipse cx="98" cy="102" rx="1.2" ry="1.8" fill="#d49080" opacity="0.3"/>
  <ellipse cx="102" cy="102" rx="1.2" ry="1.8" fill="#d49080" opacity="0.3"/>
  
  <!-- Mouth (forced, uncomfortable smile) -->
  <path d="M83 130 Q100 137 117 130" stroke="#d49080" stroke-width="2.3" fill="none" stroke-linecap="round"/>
  
  <!-- Tension in forced smile -->
  <path d="M86 132 Q100 139 114 132" stroke="#c48070" stroke-width="1.2" fill="none" opacity="0.7"/>
  
  <!-- Lip compression from forced expression -->
  <path d="M88 128 Q100 133 112 128" stroke="#e0c0a8" stroke-width="0.8" fill="none" opacity="0.6"/>
  
  <!-- Major blushing on cheeks -->
  <ellipse cx="58" cy="108" rx="12" ry="16" fill="url(#blushGradient)"/>
  <ellipse cx="142" cy="108" rx="12" ry="16" fill="url(#blushGradient)"/>
  
  <!-- Additional blush spots -->
  <ellipse cx="62" cy="105" rx="6" ry="8" fill="rgba(255,100,100,0.4)"/>
  <ellipse cx="138" cy="105" rx="6" ry="8" fill="rgba(255,100,100,0.4)"/>
  
  <!-- Blush extending to ears -->
  <ellipse cx="45" cy="100" rx="4" ry="8" fill="rgba(255,120,120,0.3)"/>
  <ellipse cx="155" cy="100" rx="4" ry="8" fill="rgba(255,120,120,0.3)"/>
  
  <!-- Nasolabial folds from forced smile -->
  <path d="M105 105 Q110 115 113 125" stroke="#e0c0a8" stroke-width="1" fill="none" opacity="0.6"/>
  <path d="M95 105 Q90 115 87 125" stroke="#e0c0a8" stroke-width="1" fill="none" opacity="0.6"/>
  
  <!-- Tension lines around mouth -->
  <path d="M78 125 Q83 123 88 125" stroke="#c48070" stroke-width="0.8" fill="none" opacity="0.5"/>
  <path d="M112 125 Q117 123 122 125" stroke="#c48070" stroke-width="0.8" fill="none" opacity="0.5"/>
  
  <!-- Chin dimpling from tension -->
  <ellipse cx="100" cy="145" rx="3" ry="2" fill="#e0c0a8" opacity="0.4"/>
  
  <!-- Neck tension from discomfort -->
  <path d="M88 175 Q100 178 112 175" stroke="#e0c0a8" stroke-width="0.8" fill="none" opacity="0.4"/>
  <path d="M92 180 Q100 182 108 180" stroke="#e0c0a8" stroke-width="0.6" fill="none" opacity="0.3"/>
  
  <!-- Head slightly tilted down (embarrassment posture) -->
  <path d="M82 62 Q100 58 118 62" stroke="#e0c0a8" stroke-width="0.6" fill="none" opacity="0.4"/>
</svg>