<svg xmlns="http://www.w3.org/2000/svg" viewBox="0 0 200 200" width="200" height="200">
  <!-- Face outline -->
  <ellipse cx="100" cy="110" rx="70" ry="80" fill="#fdbcb4" stroke="#333" stroke-width="2"/>
  
  <!-- Hair -->
  <path d="M30 60 Q50 20 100 25 Q150 20 170 60 Q160 40 100 35 Q40 40 30 60" fill="#8b4513"/>
  
  <!-- Eyebrows (slightly raised, uncertain) -->
  <path d="M60 75 Q70 72 80 75" stroke="#333" stroke-width="3" fill="none" stroke-linecap="round"/>
  <path d="M120 75 Q130 72 140 75" stroke="#333" stroke-width="3" fill="none" stroke-linecap="round"/>
  
  <!-- Eyes (looking down and away) -->
  <ellipse cx="70" cy="85" rx="12" ry="8" fill="white"/>
  <ellipse cx="130" cy="85" rx="12" ry="8" fill="white"/>
  <!-- Pupils looking down and to the side -->
  <circle cx="67" cy="89" r="4" fill="#333"/>
  <circle cx="127" cy="89" r="4" fill="#333"/>
  
  <!-- Nose -->
  <path d="M95 95 L100 105 L105 95" stroke="#333" stroke-width="1.5" fill="none"/>
  
  <!-- Mouth (forced, uncomfortable smile) -->
  <path d="M85 130 Q100 135 115 130" stroke="#333" stroke-width="2" fill="none" stroke-linecap="round"/>
  <!-- Additional line showing tension in smile -->
  <path d="M88 132 Q100 137 112 132" stroke="#333" stroke-width="1" fill="none" opacity="0.5"/>
  
  <!-- Blushing on cheeks -->
  <ellipse cx="60" cy="110" rx="8" ry="12" fill="#ff9999" opacity="0.4"/>
  <ellipse cx="140" cy="110" rx="8" ry="12" fill="#ff9999" opacity="0.4"/>
  
  <!-- Tension lines around mouth -->
  <path d="M80 125 Q85 123 90 125" stroke="#333" stroke-width="0.5" fill="none" opacity="0.4"/>
  <path d="M110 125 Q115 123 120 125" stroke="#333" stroke-width="0.5" fill="none" opacity="0.4"/>
  
  <!-- Head slightly tilted down -->
  <path d="M85 65 Q100 62 115 65" stroke="#333" stroke-width="0.5" fill="none" opacity="0.3"/>
</svg>