<svg viewBox="0 0 200 200" xmlns="http://www.w3.org/2000/svg">
  <!-- Mild Jealousy: Discrete envy, subtle sideways glance, light tension -->
  
  <!-- Definitions for gradients and effects -->
  <defs>
    <!-- Face gradient with subtle envy tint -->
    <radialGradient id="faceGradientMild" cx="50%" cy="45%" r="60%">
      <stop offset="0%" stop-color="#fdcb6e" stop-opacity="0.9"/>
      <stop offset="60%" stop-color="#e17055" stop-opacity="0.8"/>
      <stop offset="100%" stop-color="#00b894" stop-opacity="0.1"/>
    </radialGradient>
    
    <!-- Eye gradient with envious look -->
    <radialGradient id="eyeGradientMild" cx="60%" cy="40%" r="60%">
      <stop offset="0%" stop-color="#00cec9" stop-opacity="0.8"/>
      <stop offset="50%" stop-color="#00b894" stop-opacity="0.7"/>
      <stop offset="100%" stop-color="#2d3436" stop-opacity="0.8"/>
    </radialGradient>
    
    <!-- Subtle envy aura -->
    <radialGradient id="envyAura" cx="50%" cy="50%" r="70%">
      <stop offset="0%" stop-color="#00cec9" stop-opacity="0.08"/>
      <stop offset="50%" stop-color="#00b894" stop-opacity="0.05"/>
      <stop offset="100%" stop-color="#00a085" stop-opacity="0.02"/>
    </radialGradient>
    
    <!-- Envy glow filter -->
    <filter id="envyGlow">
      <feGaussianBlur stdDeviation="1.2" result="coloredBlur"/>
      <feMerge>
        <feMergeNode in="coloredBlur"/>
        <feMergeNode in="SourceGraphic"/>
      </feMerge>
    </filter>
  </defs>
  
  <!-- Background aura of mild envy -->
  <circle cx="100" cy="100" r="88" fill="url(#envyAura)" opacity="0.4"/>
  
  <!-- Face shape with slight asymmetry -->
  <ellipse cx="101" cy="97" rx="44" ry="48" fill="url(#faceGradientMild)" stroke="#ddd" stroke-width="1"/>
  
  <!-- Hair with normal appearance but slight tension -->
  <path d="M 57 68 Q 73 50 101 52 Q 129 50 143 68 Q 139 60 117 62 Q 101 60 85 62 Q 61 60 57 68" 
        fill="#6c5ce7" stroke="#a29bfe" stroke-width="1"/>
  
  <!-- Subtle hair tension strands -->
  <path d="M 68 62 Q 75 58 82 62" stroke="#a29bfe" stroke-width="1.2" fill="none" opacity="0.5"/>
  <path d="M 118 62 Q 125 58 132 62" stroke="#a29bfe" stroke-width="1.2" fill="none" opacity="0.5"/>
  
  <!-- Eyebrows with subtle asymmetry and slight tension -->
  <path d="M 77 79 Q 86 77 95 79" stroke="#2d3436" stroke-width="2" fill="none" stroke-linecap="round"/>
  <path d="M 106 78 Q 115 76 124 78" stroke="#2d3436" stroke-width="2" fill="none" stroke-linecap="round"/>
  
  <!-- Subtle envy lines -->
  <path d="M 89 78 Q 91 76 93 78" stroke="#b2bec3" stroke-width="0.5" fill="none" opacity="0.3"/>
  <path d="M 108 77 Q 110 75 112 77" stroke="#b2bec3" stroke-width="0.5" fill="none" opacity="0.3"/>
  
  <!-- Eyes with sideways, envious glance -->
  <ellipse cx="85" cy="87" rx="7" ry="5" fill="url(#eyeGradientMild)"/>
  <ellipse cx="116" cy="87" rx="7" ry="5" fill="url(#eyeGradientMild)"/>
  
  <!-- Upper eyelids showing suspicion -->
  <path d="M 78 85 Q 85 83 92 85" stroke="#2d3436" stroke-width="1" fill="none" opacity="0.7"/>
  <path d="M 109 85 Q 116 83 123 85" stroke="#2d3436" stroke-width="1" fill="none" opacity="0.7"/>
  
  <!-- Pupils looking sideways with envy -->
  <circle cx="87" cy="88" r="2.5" fill="#2d3436"/>
  <circle cx="118" cy="88" r="2.5" fill="#2d3436"/>
  
  <!-- Eye highlights with envious glint -->
  <circle cx="88" cy="86" r="0.8" fill="#00cec9" opacity="0.7"/>
  <circle cx="119" cy="86" r="0.8" fill="#00cec9" opacity="0.7"/>
  
  <!-- Subtle under-eye tension -->
  <path d="M 79 90 Q 85 92 91 90" stroke="#b2bec3" stroke-width="0.5" fill="none" opacity="0.3"/>
  <path d="M 110 90 Q 116 92 122 90" stroke="#b2bec3" stroke-width="0.5" fill="none" opacity="0.3"/>
  
  <!-- Nose with slight flare -->
  <path d="M 101 98 L 99 108 L 101 110 L 103 108 Z" fill="#e17055" stroke="#d63031" stroke-width="0.5"/>
  
  <!-- Subtle nostril tension -->
  <ellipse cx="99" cy="106" rx="1.5" ry="1" fill="#d63031" opacity="0.4"/>
  <ellipse cx="103" cy="106" rx="1.5" ry="1" fill="#d63031" opacity="0.4"/>
  
  <!-- Mouth with subtle asymmetric tension -->
  <path d="M 93 118 Q 101 117 109 118" stroke="#2d3436" stroke-width="1.8" fill="none" stroke-linecap="round"/>
  
  <!-- Lip definition with slight asymmetry -->
  <path d="M 95 118 Q 101 117 107 118" stroke="#e17055" stroke-width="0.7" fill="none" opacity="0.6"/>
  
  <!-- Subtle mouth tension (more on one side) -->
  <circle cx="93" cy="118" r="0.7" fill="#d63031" opacity="0.4"/>
  <circle cx="109" cy="118" r="0.9" fill="#d63031" opacity="0.5"/>
  
  <!-- Asymmetric nasolabial folds -->
  <path d="M 91 108 Q 93 113 95 118" stroke="#b2bec3" stroke-width="0.5" fill="none" opacity="0.3"/>
  <path d="M 111 108 Q 109 113 107 118" stroke="#b2bec3" stroke-width="0.7" fill="none" opacity="0.4"/>
  
  <!-- Cheek definition with subtle asymmetry -->
  <ellipse cx="77" cy="105" rx="6" ry="9" fill="#e17055" opacity="0.2"/>
  <ellipse cx="124" cy="105" rx="7" ry="10" fill="#e17055" opacity="0.25"/>
  
  <!-- Chin with slight tension -->
  <ellipse cx="101" cy="133" rx="14" ry="7" fill="#e17055" opacity="0.3"/>
  
  <!-- Jawline showing mild asymmetric tension -->
  <path d="M 73 123 Q 87 137 101 137 Q 115 137 127 123" stroke="#d63031" stroke-width="0.5" fill="none" opacity="0.4"/>
  
  <!-- Neck with normal posture but slight tension -->
  <rect x="92" y="143" width="17" height="14" fill="#fdcb6e" stroke="#e17055" stroke-width="0.5" opacity="0.7"/>
  
  <!-- Subtle envy energy lines -->
  <path d="M 96 94 Q 101 96 106 94" stroke="#00cec9" stroke-width="0.3" fill="none" opacity="0.4"/>
  <path d="M 89 104 Q 93 106 97 104" stroke="#00b894" stroke-width="0.3" fill="none" opacity="0.3"/>
  <path d="M 104 104 Q 108 106 112 104" stroke="#00b894" stroke-width="0.3" fill="none" opacity="0.3"/>
  
  <!-- Gentle shadow for depth -->
  <ellipse cx="101" cy="165" rx="32" ry="7" fill="#2d3436" opacity="0.08"/>
  
  <!-- Subtle envy sparkles -->
  <circle cx="74" cy="76" r="0.6" fill="#00cec9" opacity="0.5">
    <animate attributeName="opacity" values="0.5;0.7;0.5" dur="3.5s" repeatCount="indefinite"/>
  </circle>
  <circle cx="127" cy="81" r="0.5" fill="#00b894" opacity="0.4">
    <animate attributeName="opacity" values="0.4;0.6;0.4" dur="3.2s" repeatCount="indefinite"/>
  </circle>
  <circle cx="112" cy="67" r="0.4" fill="#00a085" opacity="0.3">
    <animate attributeName="opacity" values="0.3;0.5;0.3" dur="3.8s" repeatCount="indefinite"/>
  </circle>
  
  <!-- Subtle envy wisps -->
  <path d="M 70 85 Q 75 82 80 85" stroke="#00cec9" stroke-width="0.4" fill="none" opacity="0.3">
    <animate attributeName="opacity" values="0.3;0.5;0.3" dur="4s" repeatCount="indefinite"/>
  </path>
  <path d="M 120 85 Q 125 82 130 85" stroke="#00b894" stroke-width="0.4" fill="none" opacity="0.3">
    <animate attributeName="opacity" values="0.3;0.5;0.3" dur="3.7s" repeatCount="indefinite"/>
  </path>
</svg>