<svg width="200" height="200" viewBox="0 0 200 200" xmlns="http://www.w3.org/2000/svg">
  <defs>
    <!-- Face gradient with intense warmth -->
    <radialGradient id="faceGradientIntenseJoy" cx="0.4" cy="0.3" r="0.8">
      <stop offset="0%" stop-color="#ffe8d8"/>
      <stop offset="70%" stop-color="#ffd8c8"/>
      <stop offset="100%" stop-color="#ffb8a8"/>
    </radialGradient>
    
    <!-- Intense happiness aura -->
    <radialGradient id="intenseHappinessAura" cx="0.5" cy="0.3" r="0.9">
      <stop offset="0%" stop-color="rgba(255,220,100,0.2)"/>
      <stop offset="100%" stop-color="rgba(255,180,50,0.3)"/>
    </radialGradient>
    
    <!-- Eye gradient (squinted from laughter) -->
    <radialGradient id="eyeGradientSquint" cx="0.3" cy="0.3" r="0.8">
      <stop offset="0%" stop-color="#ffffff"/>
      <stop offset="80%" stop-color="#f8f8f8"/>
      <stop offset="100%" stop-color="#e8e8e8"/>
    </radialGradient>
    
    <!-- Intense smile highlight -->
    <radialGradient id="intenseSmileHighlight" cx="0.5" cy="0.3" r="0.8">
      <stop offset="0%" stop-color="rgba(255,240,200,0.6)"/>
      <stop offset="100%" stop-color="rgba(255,240,200,0)"/>
    </radialGradient>
    
    <!-- Laughter glow -->
    <radialGradient id="laughterGlow" cx="0.5" cy="0.5" r="0.6">
      <stop offset="0%" stop-color="rgba(255,235,180,0.4)"/>
      <stop offset="100%" stop-color="rgba(255,235,180,0)"/>
    </radialGradient>
  </defs>
  
  <!-- Intense happiness aura -->
  <ellipse cx="100" cy="105" rx="90" ry="100" fill="url(#intenseHappinessAura)"/>
  
  <!-- Laughter glow around face -->
  <ellipse cx="100" cy="105" rx="75" ry="85" fill="url(#laughterGlow)"/>
  
  <!-- Face outline (slightly lifted from laughter) -->
  <ellipse cx="100" cy="103" rx="70" ry="80" fill="url(#faceGradientIntenseJoy)" stroke="#d4a894" stroke-width="1.5"/>
  
  <!-- Hair (bouncy from laughter) -->
  <path d="M30 55 Q50 10 100 15 Q150 10 170 55 Q160 30 100 25 Q40 30 30 55" fill="#8b5a3c" stroke="#6d4428" stroke-width="0.5"/>
  <path d="M50 40 Q65 30 80 35" stroke="#9d6b4a" stroke-width="1" fill="none" opacity="0.6"/>
  <path d="M120 35 Q135 30 150 40" stroke="#9d6b4a" stroke-width="1" fill="none" opacity="0.6"/>
  <!-- Bouncy hair strands -->
  <path d="M60 35 Q65 25 70 35" stroke="#9d6b4a" stroke-width="0.8" fill="none" opacity="0.5"/>
  <path d="M130 35 Q135 25 140 35" stroke="#9d6b4a" stroke-width="0.8" fill="none" opacity="0.5"/>
  
  <!-- Eyebrows (highly raised from intense joy) -->
  <path d="M58 65 Q70 62 82 65" stroke="#5d4037" stroke-width="3.5" fill="none" stroke-linecap="round"/>
  <path d="M118 65 Q130 62 142 65" stroke="#5d4037" stroke-width="3.5" fill="none" stroke-linecap="round"/>
  
  <!-- Forehead lines from raised eyebrows -->
  <path d="M65 58 Q75 55 85 58" stroke="#e0c0a8" stroke-width="0.8" fill="none" opacity="0.5"/>
  <path d="M115 58 Q125 55 135 58" stroke="#e0c0a8" stroke-width="0.8" fill="none" opacity="0.5"/>
  
  <!-- Eyes (squinted from intense laughter) -->
  <ellipse cx="70" cy="82" rx="8" ry="4" fill="url(#eyeGradientSquint)" stroke="#d4a894" stroke-width="0.8"/>
  <ellipse cx="130" cy="82" rx="8" ry="4" fill="url(#eyeGradientSquint)" stroke="#d4a894" stroke-width="0.8"/>
  
  <!-- Upper eyelids (heavily crinkled) -->
  <path d="M62 80 Q70 77 78 80" stroke="#d4a894" stroke-width="1.5" fill="none"/>
  <path d="M122 80 Q130 77 138 80" stroke="#d4a894" stroke-width="1.5" fill="none"/>
  
  <!-- Lower eyelids (pushed up from cheeks) -->
  <path d="M62 84 Q70 87 78 84" stroke="#e0c0a8" stroke-width="1.2" fill="none" opacity="0.7"/>
  <path d="M122 84 Q130 87 138 84" stroke="#e0c0a8" stroke-width="1.2" fill="none" opacity="0.7"/>
  
  <!-- Pupils (barely visible from squinting) -->
  <circle cx="70" cy="82" r="2.5" fill="#2c1810"/>
  <circle cx="130" cy="82" r="2.5" fill="#2c1810"/>
  
  <!-- Eye highlights (joyful sparkle) -->
  <circle cx="71" cy="81" r="1" fill="#ffffff" opacity="0.9"/>
  <circle cx="131" cy="81" r="1" fill="#ffffff" opacity="0.9"/>
  
  <!-- Intense crow's feet (laughter lines) -->
  <path d="M78 78 Q83 75 85 80" stroke="#e0c0a8" stroke-width="1" fill="none" opacity="0.6"/>
  <path d="M78 86 Q83 89 85 84" stroke="#e0c0a8" stroke-width="1" fill="none" opacity="0.6"/>
  <path d="M138 78 Q143 75 145 80" stroke="#e0c0a8" stroke-width="1" fill="none" opacity="0.6"/>
  <path d="M138 86 Q143 89 145 84" stroke="#e0c0a8" stroke-width="1" fill="none" opacity="0.6"/>
  
  <!-- Additional laughter lines -->
  <path d="M80 82 Q85 80 88 85" stroke="#e0c0a8" stroke-width="0.8" fill="none" opacity="0.5"/>
  <path d="M140 82 Q145 80 148 85" stroke="#e0c0a8" stroke-width="0.8" fill="none" opacity="0.5"/>
  
  <!-- Nose (slightly scrunched from laughter) -->
  <path d="M95 88 L100 98 L105 88" stroke="#d4a894" stroke-width="1.8" fill="none" stroke-linecap="round"/>
  <ellipse cx="98" cy="95" rx="1.8" ry="2.2" fill="#d4a894" opacity="0.4"/>
  <ellipse cx="102" cy="95" rx="1.8" ry="2.2" fill="#d4a894" opacity="0.4"/>
  
  <!-- Nose wrinkles from intense smile -->
  <path d="M92 92 Q96 90 100 92" stroke="#e0c0a8" stroke-width="0.6" fill="none" opacity="0.4"/>
  <path d="M100 92 Q104 90 108 92" stroke="#e0c0a8" stroke-width="0.6" fill="none" opacity="0.4"/>
  
  <!-- Mouth (wide, open laughter) -->
  <ellipse cx="100" cy="125" rx="18" ry="12" fill="#8b4513" opacity="0.6"/>
  <path d="M82 120 Q100 135 118 120" stroke="#d4a894" stroke-width="3" fill="none" stroke-linecap="round"/>
  
  <!-- Teeth showing -->
  <rect x="92" y="118" width="16" height="8" fill="#ffffff" rx="2" opacity="0.9"/>
  <path d="M94 118 L94 126" stroke="#e8e8e8" stroke-width="0.5"/>
  <path d="M98 118 L98 126" stroke="#e8e8e8" stroke-width="0.5"/>
  <path d="M102 118 L102 126" stroke="#e8e8e8" stroke-width="0.5"/>
  <path d="M106 118 L106 126" stroke="#e8e8e8" stroke-width="0.5"/>
  
  <!-- Intense smile highlight -->
  <ellipse cx="100" cy="122" rx="20" ry="8" fill="url(#intenseSmileHighlight)"/>
  
  <!-- Pronounced dimples -->
  <circle cx="78" cy="115" r="2.5" fill="#e0c0a8" opacity="0.7"/>
  <circle cx="122" cy="115" r="2.5" fill="#e0c0a8" opacity="0.7"/>
  
  <!-- Deep nasolabial folds -->
  <path d="M105 98 Q115 108 118 118" stroke="#d4a894" stroke-width="1.5" fill="none" opacity="0.6"/>
  <path d="M95 98 Q85 108 82 118" stroke="#d4a894" stroke-width="1.5" fill="none" opacity="0.6"/>
  
  <!-- Raised cheeks from intense smile -->
  <ellipse cx="85" cy="105" rx="8" ry="12" fill="url(#intenseSmileHighlight)" opacity="0.4"/>
  <ellipse cx="115" cy="105" rx="8" ry="12" fill="url(#intenseSmileHighlight)" opacity="0.4"/>
  
  <!-- Cheek definition lines -->
  <path d="M120 100 Q125 105 123 110" stroke="#f0d8c8" stroke-width="1.2" fill="none" opacity="0.5"/>
  <path d="M80 100 Q75 105 77 110" stroke="#f0d8c8" stroke-width="1.2" fill="none" opacity="0.5"/>
  
  <!-- Chin and jawline (lifted from laughter) -->
  <path d="M82 148 Q100 151 118 148" stroke="#e0c0a8" stroke-width="1.2" fill="none" opacity="0.5"/>
  <path d="M72 133 Q87 138 100 136" stroke="#e8d0b8" stroke-width="1" fill="none" opacity="0.4"/>
  <path d="M100 136 Q113 138 128 133" stroke="#e8d0b8" stroke-width="1" fill="none" opacity="0.4"/>
  
  <!-- Neck -->
  <path d="M88 173 Q100 176 112 173" stroke="#e8d0b8" stroke-width="1" fill="none" opacity="0.4"/>
  
  <!-- Laughter energy lines -->
  <path d="M40 90 Q50 85 60 90" stroke="rgba(255,220,100,0.4)" stroke-width="1.5" fill="none" opacity="0.6"/>
  <path d="M140 90 Q150 85 160 90" stroke="rgba(255,220,100,0.4)" stroke-width="1.5" fill="none" opacity="0.6"/>
  
  <!-- Shadow (bouncing from laughter) -->
  <ellipse cx="100" cy="175" rx="50" ry="8" fill="rgba(200,180,160,0.2)"/>
  
  <!-- Joy sparkles -->
  <circle cx="45" cy="70" r="1.5" fill="rgba(255,220,100,0.6)"/>
  <circle cx="155" cy="75" r="1" fill="rgba(255,220,100,0.5)"/>
  <circle cx="35" cy="120" r="1.2" fill="rgba(255,220,100,0.4)"/>
  <circle cx="165" cy="115" r="0.8" fill="rgba(255,220,100,0.5)"/>
</svg>