<svg xmlns="http://www.w3.org/2000/svg" viewBox="0 0 200 200" width="200" height="200">
  <!-- Face outline (chin raised) -->
  <ellipse cx="100" cy="105" rx="70" ry="80" fill="#fdbcb4" stroke="#333" stroke-width="2"/>
  
  <!-- Hair -->
  <path d="M30 55 Q50 15 100 20 Q150 15 170 55 Q160 35 100 30 Q40 35 30 55" fill="#8b4513"/>
  
  <!-- Eyebrows (one slightly raised, condescending) -->
  <path d="M60 70 Q70 68 80 70" stroke="#333" stroke-width="3" fill="none" stroke-linecap="round"/>
  <path d="M120 65 Q130 63 140 65" stroke="#333" stroke-width="3" fill="none" stroke-linecap="round"/>
  
  <!-- Eyes (looking down condescendingly) -->
  <ellipse cx="70" cy="80" rx="12" ry="8" fill="white"/>
  <ellipse cx="130" cy="78" rx="12" ry="8" fill="white"/>
  <!-- Pupils looking down with disdain -->
  <circle cx="70" cy="83" r="4" fill="#333"/>
  <circle cx="130" cy="81" r="4" fill="#333"/>
  
  <!-- Nose (slightly flared) -->
  <path d="M95 90 L100 100 L105 90" stroke="#333" stroke-width="1.5" fill="none"/>
  <ellipse cx="97" cy="95" rx="1.5" ry="2" fill="#333" opacity="0.3"/>
  <ellipse cx="103" cy="95" rx="1.5" ry="2" fill="#333" opacity="0.3"/>
  
  <!-- Mouth (asymmetric smirk - one corner raised) -->
  <path d="M85 125 Q100 125 115 120" stroke="#333" stroke-width="2" fill="none" stroke-linecap="round"/>
  
  <!-- Dimple on raised side -->
  <circle cx="118" cy="118" r="1.5" fill="#333" opacity="0.4"/>
  
  <!-- Asymmetric cheek line -->
  <path d="M115 110 Q120 115 118 120" stroke="#333" stroke-width="1" fill="none" opacity="0.5"/>
  
  <!-- Slight squint on one eye -->
  <path d="M125 75 Q130 73 135 75" stroke="#333" stroke-width="1" fill="none" opacity="0.6"/>
  
  <!-- Shadow showing raised chin -->
  <ellipse cx="100" cy="170" rx="45" ry="6" fill="#333" opacity="0.15"/>
</svg>