<svg viewBox="0 0 200 200" xmlns="http://www.w3.org/2000/svg">
  <!-- Mild Contempt: Light disdain, subtle asymmetry, condescending gaze -->
  
  <!-- Definitions for gradients and effects -->
  <defs>
    <!-- Face gradient with subtle superiority -->
    <radialGradient id="faceGradientMild" cx="50%" cy="45%" r="60%">
      <stop offset="0%" stop-color="#fdcb6e" stop-opacity="0.9"/>
      <stop offset="60%" stop-color="#e17055" stop-opacity="0.8"/>
      <stop offset="100%" stop-color="#636e72" stop-opacity="0.1"/>
    </radialGradient>
    
    <!-- Eye gradient with condescending look -->
    <radialGradient id="eyeGradientMild" cx="50%" cy="35%" r="60%">
      <stop offset="0%" stop-color="#74b9ff" stop-opacity="0.8"/>
      <stop offset="50%" stop-color="#0984e3" stop-opacity="0.7"/>
      <stop offset="100%" stop-color="#2d3436" stop-opacity="0.8"/>
    </radialGradient>
    
    <!-- Subtle disdain aura -->
    <radialGradient id="disdainAura" cx="50%" cy="50%" r="70%">
      <stop offset="0%" stop-color="#636e72" stop-opacity="0.06"/>
      <stop offset="50%" stop-color="#2d3436" stop-opacity="0.04"/>
      <stop offset="100%" stop-color="#636e72" stop-opacity="0.02"/>
    </radialGradient>
    
    <!-- Superiority glow filter -->
    <filter id="superiorityGlow">
      <feGaussianBlur stdDeviation="1" result="coloredBlur"/>
      <feMerge>
        <feMergeNode in="coloredBlur"/>
        <feMergeNode in="SourceGraphic"/>
      </feMerge>
    </filter>
  </defs>
  
  <!-- Background aura of mild disdain -->
  <circle cx="100" cy="100" r="85" fill="url(#disdainAura)" opacity="0.4"/>
  
  <!-- Face shape with subtle asymmetry -->
  <ellipse cx="100" cy="96" rx="44" ry="48" fill="url(#faceGradientMild)" stroke="#ddd" stroke-width="1" transform="rotate(-1 100 96)"/>
  
  <!-- Hair with neat, superior appearance -->
  <path d="M 56 68 Q 72 50 100 52 Q 128 50 144 68 Q 140 60 118 62 Q 100 60 82 62 Q 60 60 56 68" 
        fill="#6c5ce7" stroke="#a29bfe" stroke-width="1"/>
  
  <!-- Perfectly styled hair strands -->
  <path d="M 68 62 Q 75 59 82 62" stroke="#a29bfe" stroke-width="1" fill="none" opacity="0.6"/>
  <path d="M 118 62 Q 125 59 132 62" stroke="#a29bfe" stroke-width="1" fill="none" opacity="0.6"/>
  
  <!-- Eyebrows with subtle asymmetric arch (condescending) -->
  <path d="M 77 79 Q 86 76 95 79" stroke="#2d3436" stroke-width="2" fill="none" stroke-linecap="round"/>
  <path d="M 105 78 Q 114 75 123 78" stroke="#2d3436" stroke-width="2" fill="none" stroke-linecap="round"/>
  
  <!-- Subtle superiority lines -->
  <path d="M 89 78 Q 91 76 93 78" stroke="#b2bec3" stroke-width="0.4" fill="none" opacity="0.3"/>
  <path d="M 107 77 Q 109 75 111 77" stroke="#b2bec3" stroke-width="0.4" fill="none" opacity="0.3"/>
  
  <!-- Eyes with condescending, looking-down gaze -->
  <ellipse cx="85" cy="87" rx="7" ry="5" fill="url(#eyeGradientMild)"/>
  <ellipse cx="115" cy="87" rx="7" ry="5" fill="url(#eyeGradientMild)"/>
  
  <!-- Upper eyelids showing subtle disdain -->
  <path d="M 78 85 Q 85 83 92 85" stroke="#2d3436" stroke-width="1" fill="none" opacity="0.7"/>
  <path d="M 108 85 Q 115 83 122 85" stroke="#2d3436" stroke-width="1" fill="none" opacity="0.7"/>
  
  <!-- Pupils looking down condescendingly -->
  <circle cx="85" cy="89" r="2.5" fill="#2d3436"/>
  <circle cx="115" cy="89" r="2.5" fill="#2d3436"/>
  
  <!-- Eye highlights with cold superiority -->
  <circle cx="85" cy="86" r="0.8" fill="#ffffff" opacity="0.8"/>
  <circle cx="115" cy="86" r="0.8" fill="#ffffff" opacity="0.8"/>
  
  <!-- Subtle under-eye definition -->
  <path d="M 79 90 Q 85 91 91 90" stroke="#b2bec3" stroke-width="0.4" fill="none" opacity="0.3"/>
  <path d="M 109 90 Q 115 91 121 90" stroke="#b2bec3" stroke-width="0.4" fill="none" opacity="0.3"/>
  
  <!-- Nose with subtle superior flare -->
  <path d="M 100 98 L 98 108 L 100 110 L 102 108 Z" fill="#e17055" stroke="#d63031" stroke-width="0.5"/>
  
  <!-- Subtle nostril definition -->
  <ellipse cx="98" cy="106" rx="1.2" ry="0.8" fill="#d63031" opacity="0.3"/>
  <ellipse cx="102" cy="106" rx="1.2" ry="0.8" fill="#d63031" opacity="0.3"/>
  
  <!-- Mouth with characteristic asymmetric smirk -->
  <path d="M 93 118 Q 100 117 107 119" stroke="#2d3436" stroke-width="1.8" fill="none" stroke-linecap="round"/>
  
  <!-- Asymmetric lip definition (smirk) -->
  <path d="M 95 118 Q 100 117 105 119" stroke="#e17055" stroke-width="0.7" fill="none" opacity="0.6"/>
  
  <!-- Subtle mouth asymmetry -->
  <circle cx="93" cy="118" r="0.6" fill="#d63031" opacity="0.3"/>
  <circle cx="107" cy="119" r="0.8" fill="#d63031" opacity="0.4"/>
  
  <!-- Asymmetric nasolabial folds (more pronounced on smirk side) -->
  <path d="M 91 108 Q 93 113 95 118" stroke="#b2bec3" stroke-width="0.4" fill="none" opacity="0.3"/>
  <path d="M 109 108 Q 107 113 105 119" stroke="#b2bec3" stroke-width="0.6" fill="none" opacity="0.4"/>
  
  <!-- Cheek definition with subtle asymmetry -->
  <ellipse cx="77" cy="105" rx="6" ry="9" fill="#e17055" opacity="0.2"/>
  <ellipse cx="123" cy="105" rx="7" ry="10" fill="#e17055" opacity="0.25"/>
  
  <!-- Chin with slight superiority lift -->
  <ellipse cx="100" cy="132" rx="14" ry="7" fill="#e17055" opacity="0.3"/>
  
  <!-- Jawline showing subtle asymmetric tension -->
  <path d="M 73 123 Q 87 136 100 136 Q 113 136 127 123" stroke="#d63031" stroke-width="0.5" fill="none" opacity="0.4"/>
  
  <!-- Neck with slightly raised, superior posture -->
  <rect x="92" y="142" width="16" height="15" fill="#fdcb6e" stroke="#e17055" stroke-width="0.5" opacity="0.7"/>
  
  <!-- Subtle superiority energy lines -->
  <path d="M 96 94 Q 100 96 104 94" stroke="#636e72" stroke-width="0.3" fill="none" opacity="0.4"/>
  <path d="M 89 104 Q 93 106 97 104" stroke="#636e72" stroke-width="0.3" fill="none" opacity="0.3"/>
  <path d="M 103 104 Q 107 106 111 104" stroke="#636e72" stroke-width="0.3" fill="none" opacity="0.3"/>
  
  <!-- Gentle shadow for depth -->
  <ellipse cx="100" cy="164" rx="30" ry="6" fill="#2d3436" opacity="0.08"/>
  
  <!-- Subtle disdain sparkles -->
  <circle cx="75" cy="77" r="0.5" fill="#636e72" opacity="0.4">
    <animate attributeName="opacity" values="0.4;0.6;0.4" dur="3.8s" repeatCount="indefinite"/>
  </circle>
  <circle cx="125" cy="82" r="0.4" fill="#2d3436" opacity="0.3">
    <animate attributeName="opacity" values="0.3;0.5;0.3" dur="3.5s" repeatCount="indefinite"/>
  </circle>
  <circle cx="110" cy="68" r="0.3" fill="#636e72" opacity="0.2">
    <animate attributeName="opacity" values="0.2;0.4;0.2" dur="4s" repeatCount="indefinite"/>
  </circle>
  
  <!-- Subtle superiority wisps -->
  <path d="M 72 86 Q 77 83 82 86" stroke="#636e72" stroke-width="0.3" fill="none" opacity="0.3">
    <animate attributeName="opacity" values="0.3;0.5;0.3" dur="4.2s" repeatCount="indefinite"/>
  </path>
  <path d="M 118 86 Q 123 83 128 86" stroke="#2d3436" stroke-width="0.3" fill="none" opacity="0.3">
    <animate attributeName="opacity" values="0.3;0.5;0.3" dur="3.9s" repeatCount="indefinite"/>
  </path>
  
  <!-- Condescending gaze direction indicators -->
  <path d="M 82 89 Q 84 91 86 89" stroke="#74b9ff" stroke-width="0.2" fill="none" opacity="0.4"/>
  <path d="M 112 89 Q 114 91 116 89" stroke="#74b9ff" stroke-width="0.2" fill="none" opacity="0.4"/>
</svg>