<svg width="200" height="200" viewBox="0 0 200 200" xmlns="http://www.w3.org/2000/svg">
  <defs>
    <!-- Face gradient with superior undertone -->
    <radialGradient id="faceGradientContempt" cx="0.4" cy="0.3" r="0.8">
      <stop offset="0%" stop-color="#f5e1d4"/>
      <stop offset="70%" stop-color="#ecd0c0"/>
      <stop offset="100%" stop-color="#deb8a0"/>
    </radialGradient>
    
    <!-- Superiority aura gradient -->
    <radialGradient id="superiorityAura" cx="0.5" cy="0.3" r="0.9">
      <stop offset="0%" stop-color="rgba(200,180,160,0.1)"/>
      <stop offset="100%" stop-color="rgba(160,140,120,0.2)"/>
    </radialGradient>
    
    <!-- Eye gradient -->
    <radialGradient id="eyeGradient" cx="0.3" cy="0.3" r="0.8">
      <stop offset="0%" stop-color="#ffffff"/>
      <stop offset="80%" stop-color="#f8f8f8"/>
      <stop offset="100%" stop-color="#e8e8e8"/>
    </radialGradient>
    
    <!-- Condescension shadow -->
    <radialGradient id="condescensionShadow" cx="0.5" cy="0.4" r="0.8">
      <stop offset="0%" stop-color="rgba(180,160,140,0.1)"/>
      <stop offset="100%" stop-color="rgba(140,120,100,0.3)"/>
    </radialGradient>
    
    <!-- Smirk highlight -->
    <radialGradient id="smirkHighlight" cx="0.3" cy="0.3" r="0.7">
      <stop offset="0%" stop-color="rgba(255,240,220,0.4)"/>
      <stop offset="100%" stop-color="rgba(255,240,220,0)"/>
    </radialGradient>
  </defs>
  
  <!-- Superiority aura -->
  <ellipse cx="100" cy="105" rx="85" ry="95" fill="url(#superiorityAura)"/>
  
  <!-- Face outline (chin raised in superiority) -->
  <ellipse cx="100" cy="107" rx="72" ry="82" fill="url(#condescensionShadow)"/>
  <ellipse cx="100" cy="105" rx="70" ry="80" fill="url(#faceGradientContempt)" stroke="#c49080" stroke-width="1.5"/>
  
  <!-- Hair with refined styling -->
  <path d="M30 55 Q45 10 100 15 Q155 10 170 55 Q165 30 140 25 Q120 20 100 23 Q80 20 60 25 Q35 30 30 55" fill="#8b5a3c" stroke="#6d4428" stroke-width="0.5"/>
  <path d="M45 45 Q60 35 75 40" stroke="#9d6b4a" stroke-width="1" fill="none" opacity="0.6"/>
  <path d="M125 40 Q140 35 155 45" stroke="#9d6b4a" stroke-width="1" fill="none" opacity="0.6"/>
  
  <!-- Eyebrows (asymmetrical - one raised condescendingly) -->
  <path d="M58 70 Q68 68 78 70 Q75 69 70 69" stroke="#5d4037" stroke-width="3.2" fill="none" stroke-linecap="round"/>
  <path d="M122 63 Q132 60 142 63 Q135 61 130 62" stroke="#5d4037" stroke-width="3.8" fill="none" stroke-linecap="round"/>
  
  <!-- Forehead lines from raised eyebrow -->
  <path d="M125 55 Q135 52 145 55" stroke="#d4a894" stroke-width="0.8" fill="none" opacity="0.6"/>
  <path d="M120 58 Q130 56 140 58" stroke="#d4a894" stroke-width="0.6" fill="none" opacity="0.4"/>
  
  <!-- Eyes (asymmetrical, condescending gaze) -->
  <ellipse cx="70" cy="80" rx="12" ry="8" fill="url(#eyeGradient)" stroke="#c49080" stroke-width="0.8"/>
  <ellipse cx="130" cy="76" rx="12" ry="7" fill="url(#eyeGradient)" stroke="#c49080" stroke-width="0.8"/>
  
  <!-- Upper eyelids (asymmetrical) -->
  <path d="M58 77 Q70 74 82 77" stroke="#c49080" stroke-width="1.2" fill="none"/>
  <path d="M118 73 Q130 70 142 73" stroke="#c49080" stroke-width="1.5" fill="none"/>
  
  <!-- Lower eyelid (slight squint on right eye) -->
  <path d="M118 79 Q130 82 142 79" stroke="#d4a894" stroke-width="1" fill="none" opacity="0.7"/>
  
  <!-- Pupils (looking down with disdain) -->
  <circle cx="70" cy="83" r="4.2" fill="#2c1810"/>
  <circle cx="130" cy="79" r="4.2" fill="#2c1810"/>
  
  <!-- Eye highlights (cold, calculating) -->
  <circle cx="72" cy="81" r="1.5" fill="#ffffff" opacity="0.8"/>
  <circle cx="132" cy="77" r="1.5" fill="#ffffff" opacity="0.8"/>
  
  <!-- Crow's feet from squinting (right eye only) -->
  <path d="M142 74 Q147 72 149 76" stroke="#d4a894" stroke-width="0.8" fill="none" opacity="0.6"/>
  <path d="M142 79 Q147 81 149 77" stroke="#d4a894" stroke-width="0.8" fill="none" opacity="0.6"/>
  
  <!-- Nose (slightly flared with superiority) -->
  <path d="M95 90 L100 100 L105 90" stroke="#c49080" stroke-width="1.8" fill="none" stroke-linecap="round"/>
  <ellipse cx="97" cy="97" rx="1.8" ry="2.5" fill="#c49080" opacity="0.4"/>
  <ellipse cx="103" cy="97" rx="1.8" ry="2.5" fill="#c49080" opacity="0.4"/>
  
  <!-- Nostril definition (slight flare) -->
  <path d="M96 99 Q98 101 100 99" stroke="#b8906f" stroke-width="0.8" fill="none" opacity="0.6"/>
  <path d="M100 99 Q102 101 104 99" stroke="#b8906f" stroke-width="0.8" fill="none" opacity="0.6"/>
  
  <!-- Mouth (characteristic asymmetric smirk) -->
  <path d="M83 125 Q100 127 117 122" stroke="#c49080" stroke-width="2.5" fill="none" stroke-linecap="round"/>
  
  <!-- Smirk highlight on raised side -->
  <ellipse cx="115" cy="120" rx="8" ry="6" fill="url(#smirkHighlight)"/>
  
  <!-- Lip definition (asymmetrical) -->
  <path d="M85 123 Q100 125 115 120" stroke="#d4a894" stroke-width="1" fill="none" opacity="0.7"/>
  
  <!-- Dimple on raised side (contempt marker) -->
  <ellipse cx="118" cy="118" rx="2.5" ry="3" fill="url(#smirkHighlight)"/>
  <circle cx="118" cy="118" r="1.8" fill="#d4a894" opacity="0.6"/>
  
  <!-- Asymmetric cheek definition -->
  <path d="M113 108 Q118 113 116 118" stroke="#e0c0a8" stroke-width="1.2" fill="none" opacity="0.6"/>
  <path d="M85 110 Q90 115 88 120" stroke="#e0c0a8" stroke-width="0.8" fill="none" opacity="0.4"/>
  
  <!-- Nasolabial folds (asymmetrical from smirk) -->
  <path d="M105 100 Q112 110 115 120" stroke="#e0c0a8" stroke-width="1.2" fill="none" opacity="0.6"/>
  <path d="M95 100 Q88 110 85 120" stroke="#e0c0a8" stroke-width="0.8" fill="none" opacity="0.4"/>
  
  <!-- Chin definition (raised with superiority) -->
  <path d="M85 150 Q100 153 115 150" stroke="#d4a894" stroke-width="1.2" fill="none" opacity="0.6"/>
  
  <!-- Jawline definition (confident) -->
  <path d="M70 135 Q85 140 100 138" stroke="#e0c0a8" stroke-width="1" fill="none" opacity="0.5"/>
  <path d="M100 138 Q115 140 130 135" stroke="#e0c0a8" stroke-width="1" fill="none" opacity="0.5"/>
  
  <!-- Neck with superior posture -->
  <path d="M88 175 Q100 180 112 175" stroke="#e0c0a8" stroke-width="1" fill="none" opacity="0.5"/>
  
  <!-- Additional contempt markers -->
  <!-- Slight head tilt (superiority posture) -->
  <path d="M80 58 Q100 55 120 58" stroke="#e0c0a8" stroke-width="0.6" fill="none" opacity="0.4"/>
  
  <!-- Shadow showing raised chin posture -->
  <ellipse cx="100" cy="175" rx="50" ry="8" fill="rgba(140,120,100,0.2)"/>
  
  <!-- Subtle superiority aura around face -->
  <ellipse cx="100" cy="105" rx="72" ry="82" fill="none" stroke="rgba(200,180,160,0.3)" stroke-width="1.5"/>
</svg>