<svg width="200" height="200" viewBox="0 0 200 200" xmlns="http://www.w3.org/2000/svg">
  <defs>
    <!-- Face gradient with terror pallor -->
    <radialGradient id="faceGradientIntenseFear" cx="0.4" cy="0.3" r="0.8">
      <stop offset="0%" stop-color="#f8f5f0"/>
      <stop offset="70%" stop-color="#f0e8e0"/>
      <stop offset="100%" stop-color="#e8d8d0"/>
    </radialGradient>
    
    <!-- Terror aura -->
    <radialGradient id="terrorAura" cx="0.5" cy="0.3" r="0.9">
      <stop offset="0%" stop-color="rgba(200,200,220,0.3)"/>
      <stop offset="100%" stop-color="rgba(180,180,200,0.4)"/>
    </radialGradient>
    
    <!-- Eye gradient (extremely wide) -->
    <radialGradient id="eyeGradientTerrified" cx="0.3" cy="0.3" r="0.8">
      <stop offset="0%" stop-color="#ffffff"/>
      <stop offset="60%" stop-color="#fefefe"/>
      <stop offset="100%" stop-color="#f8f8f8"/>
    </radialGradient>
    
    <!-- Panic energy -->
    <radialGradient id="panicEnergy" cx="0.5" cy="0.4" r="0.8">
      <stop offset="0%" stop-color="rgba(220,220,240,0.2)"/>
      <stop offset="100%" stop-color="rgba(200,200,220,0.3)"/>
    </radialGradient>
    
    <!-- Trembling effect -->
    <radialGradient id="tremblingEffect" cx="0.5" cy="0.5" r="0.8">
      <stop offset="0%" stop-color="rgba(180,180,200,0.1)"/>
      <stop offset="100%" stop-color="rgba(160,160,180,0.2)"/>
    </radialGradient>
    
    <!-- Cold sweat -->
    <radialGradient id="coldSweat" cx="0.3" cy="0.2" r="0.6">
      <stop offset="0%" stop-color="rgba(255,255,255,0.8)"/>
      <stop offset="100%" stop-color="rgba(255,255,255,0.2)"/>
    </radialGradient>
  </defs>
  
  <!-- Terror aura -->
  <ellipse cx="100" cy="105" rx="95" ry="105" fill="url(#terrorAura)"/>
  
  <!-- Panic energy bursts -->
  <ellipse cx="100" cy="105" rx="80" ry="90" fill="url(#panicEnergy)"/>
  
  <!-- Trembling effect -->
  <ellipse cx="102" cy="107" rx="75" ry="85" fill="url(#tremblingEffect)"/>
  <ellipse cx="98" cy="103" rx="73" ry="83" fill="url(#tremblingEffect)"/>
  
  <!-- Face outline (pale and trembling) -->
  <ellipse cx="100" cy="105" rx="70" ry="80" fill="url(#faceGradientIntenseFear)" stroke="#e0d0c0" stroke-width="2"/>
  
  <!-- Hair (wild with terror) -->
  <path d="M25 50 Q45 5 100 10 Q155 5 175 50 Q165 25 100 20 Q35 25 25 50" fill="#8b5a3c" stroke="#6d4428" stroke-width="0.5"/>
  <path d="M45 35 Q60 25 75 30" stroke="#9d6b4a" stroke-width="1" fill="none" opacity="0.6"/>
  <path d="M125 30 Q140 25 155 35" stroke="#9d6b4a" stroke-width="1" fill="none" opacity="0.6"/>
  <!-- Wild terror hair strands -->
  <path d="M30 40 Q35 15 40 45" stroke="#9d6b4a" stroke-width="1" fill="none" opacity="0.7"/>
  <path d="M160 45 Q165 15 170 40" stroke="#9d6b4a" stroke-width="1" fill="none" opacity="0.7"/>
  <path d="M50 25 Q55 10 60 35" stroke="#9d6b4a" stroke-width="0.8" fill="none" opacity="0.6"/>
  <path d="M140 35 Q145 10 150 25" stroke="#9d6b4a" stroke-width="0.8" fill="none" opacity="0.6"/>
  
  <!-- Eyebrows (extremely raised in shock) -->
  <path d="M55 65 Q70 55 85 65" stroke="#5d3428" stroke-width="3.5" fill="none" stroke-linecap="round"/>
  <path d="M115 65 Q130 55 145 65" stroke="#5d3428" stroke-width="3.5" fill="none" stroke-linecap="round"/>
  
  <!-- Deep shock lines -->
  <path d="M90 50 Q100 45 110 50" stroke="#e0d0c0" stroke-width="1.5" fill="none" opacity="0.8"/>
  <path d="M92 53 Q100 48 108 53" stroke="#e0d0c0" stroke-width="1.2" fill="none" opacity="0.7"/>
  <path d="M94 56 Q100 51 106 56" stroke="#e0d0c0" stroke-width="1" fill="none" opacity="0.6"/>
  
  <!-- Eyes (extremely wide with terror) -->
  <ellipse cx="70" cy="80" rx="18" ry="16" fill="url(#eyeGradientTerrified)" stroke="#e0d0c0" stroke-width="1.5"/>
  <ellipse cx="130" cy="80" rx="18" ry="16" fill="url(#eyeGradientTerrified)" stroke="#e0d0c0" stroke-width="1.5"/>
  
  <!-- Upper eyelids (completely raised) -->
  <path d="M52 68 Q70 60 88 68" stroke="#e0d0c0" stroke-width="2" fill="none"/>
  <path d="M112 68 Q130 60 148 68" stroke="#e0d0c0" stroke-width="2" fill="none"/>
  
  <!-- Lower eyelids (extremely tense) -->
  <path d="M52 92 Q70 100 88 92" stroke="#e8d8d0" stroke-width="1.5" fill="none" opacity="0.8"/>
  <path d="M112 92 Q130 100 148 92" stroke="#e8d8d0" stroke-width="1.5" fill="none" opacity="0.8"/>
  
  <!-- Pupils (extremely dilated) -->
  <circle cx="70" cy="80" r="6" fill="#1c0810"/>
  <circle cx="130" cy="80" r="6" fill="#1c0810"/>
  
  <!-- Eye highlights (terrified) -->
  <circle cx="72" cy="78" r="1.5" fill="#ffffff" opacity="0.9"/>
  <circle cx="132" cy="78" r="1.5" fill="#ffffff" opacity="0.9"/>
  
  <!-- Terror whites visible -->
  <path d="M58 75 Q65 70 72 75" stroke="#ffffff" stroke-width="2" fill="none" opacity="0.8"/>
  <path d="M68 85 Q75 90 82 85" stroke="#ffffff" stroke-width="2" fill="none" opacity="0.8"/>
  <path d="M118 75 Q125 70 132 75" stroke="#ffffff" stroke-width="2" fill="none" opacity="0.8"/>
  <path d="M128 85 Q135 90 142 85" stroke="#ffffff" stroke-width="2" fill="none" opacity="0.8"/>
  
  <!-- Extreme under-eye bags -->
  <path d="M60 95 Q70 100 80 95" stroke="#e8d8d0" stroke-width="2" fill="none" opacity="0.7"/>
  <path d="M120 95 Q130 100 140 95" stroke="#e8d8d0" stroke-width="2" fill="none" opacity="0.7"/>
  
  <!-- Nose (flared with panic breathing) -->
  <path d="M92 90 L100 105 L108 90" stroke="#e0d0c0" stroke-width="2" fill="none" stroke-linecap="round"/>
  <ellipse cx="96" cy="102" rx="2.5" ry="3" fill="#e0d0c0" opacity="0.6"/>
  <ellipse cx="104" cy="102" rx="2.5" ry="3" fill="#e0d0c0" opacity="0.6"/>
  
  <!-- Panic breathing flare -->
  <path d="M94 104 Q96 108 98 104" stroke="#d0c0b0" stroke-width="1.2" fill="none" opacity="0.7"/>
  <path d="M102 104 Q104 108 106 104" stroke="#d0c0b0" stroke-width="1.2" fill="none" opacity="0.7"/>
  
  <!-- Mouth (wide open in terror scream) -->
  <ellipse cx="100" cy="130" rx="15" ry="12" fill="#2c1810" stroke="#e0d0c0" stroke-width="2"/>
  
  <!-- Teeth visible in scream -->
  <rect x="88" y="125" width="24" height="4" fill="#ffffff" rx="1" opacity="0.9"/>
  <path d="M90 125 L90 129" stroke="#f0f0f0" stroke-width="0.5"/>
  <path d="M95 125 L95 129" stroke="#f0f0f0" stroke-width="0.5"/>
  <path d="M100 125 L100 129" stroke="#f0f0f0" stroke-width="0.5"/>
  <path d="M105 125 L105 129" stroke="#f0f0f0" stroke-width="0.5"/>
  <path d="M110 125 L110 129" stroke="#f0f0f0" stroke-width="0.5"/>
  
  <!-- Lip definition (stretched) -->
  <path d="M85 125 Q100 120 115 125" stroke="#e8d8d0" stroke-width="1.5" fill="none" opacity="0.8"/>
  
  <!-- Extreme mouth tension -->
  <path d="M80 132 Q85 138 90 132" stroke="#e8d8d0" stroke-width="1.5" fill="none" opacity="0.7"/>
  <path d="M110 132 Q115 138 120 132" stroke="#e8d8d0" stroke-width="1.5" fill="none" opacity="0.7"/>
  
  <!-- Deep nasolabial folds -->
  <path d="M108 105 Q118 115 120 125" stroke="#e8d8d0" stroke-width="2" fill="none" opacity="0.8"/>
  <path d="M92 105 Q82 115 80 125" stroke="#e8d8d0" stroke-width="2" fill="none" opacity="0.8"/>
  
  <!-- Cheek tension (sunken with fear) -->
  <path d="M125 110 Q135 115 130 125" stroke="#f0e8e0" stroke-width="1.5" fill="none" opacity="0.6"/>
  <path d="M75 110 Q65 115 70 125" stroke="#f0e8e0" stroke-width="1.5" fill="none" opacity="0.6"/>
  
  <!-- Terror lines -->
  <path d="M75 120 Q80 125 85 120" stroke="#e8d8d0" stroke-width="1" fill="none" opacity="0.5"/>
  <path d="M115 120 Q120 125 125 120" stroke="#e8d8d0" stroke-width="1" fill="none" opacity="0.5"/>
  
  <!-- Jaw dropped -->
  <path d="M75 150 Q100 155 125 150" stroke="#e8d8d0" stroke-width="2" fill="none" opacity="0.7"/>
  
  <!-- Neck tension (rigid with fear) -->
  <path d="M85 175 Q100 178 115 175" stroke="#f0e8e0" stroke-width="1.5" fill="none" opacity="0.5"/>
  
  <!-- Cold sweat drops -->
  <ellipse cx="85" cy="70" rx="2" ry="4" fill="url(#coldSweat)"/>
  <ellipse cx="115" cy="75" rx="1.5" ry="3" fill="url(#coldSweat)"/>
  <ellipse cx="90" cy="110" rx="1" ry="2" fill="url(#coldSweat)"/>
  
  <!-- Panic energy bursts -->
  <path d="M25 70 Q35 60 45 70" stroke="rgba(200,200,220,0.6)" stroke-width="2" fill="none" opacity="0.7"/>
  <path d="M155 70 Q165 60 175 70" stroke="rgba(200,200,220,0.6)" stroke-width="2" fill="none" opacity="0.7"/>
  <path d="M30 110 Q40 100 50 110" stroke="rgba(200,200,220,0.5)" stroke-width="1.5" fill="none" opacity="0.6"/>
  <path d="M150 110 Q160 100 170 110" stroke="rgba(200,200,220,0.5)" stroke-width="1.5" fill="none" opacity="0.6"/>
  
  <!-- Terror shock lines -->
  <path d="M15 80 Q25 70 35 80" stroke="rgba(180,180,200,0.4)" stroke-width="1.5" fill="none"/>
  <path d="M165 80 Q175 70 185 80" stroke="rgba(180,180,200,0.4)" stroke-width="1.5" fill="none"/>
  
  <!-- Trembling shadow -->
  <ellipse cx="98" cy="175" rx="55" ry="10" fill="rgba(180,180,200,0.3)"/>
  <ellipse cx="102" cy="177" rx="53" ry="9" fill="rgba(180,180,200,0.2)"/>
  
  <!-- Terror aura -->
  <ellipse cx="100" cy="105" rx="72" ry="82" fill="none" stroke="rgba(200,200,220,0.4)" stroke-width="2"/>
  
  <!-- Panic sparks -->
  <circle cx="20" cy="85" r="1.5" fill="rgba(200,200,220,0.8)"/>
  <circle cx="180" cy="90" r="1.2" fill="rgba(200,200,220,0.7)"/>
  <circle cx="15" cy="120" r="1" fill="rgba(200,200,220,0.6)"/>
  <circle cx="185" cy="115" r="0.8" fill="rgba(200,200,220,0.5)"/>
</svg>