<svg viewBox="0 0 200 200" xmlns="http://www.w3.org/2000/svg">
  <!-- Face circle with gradient -->
  <defs>
    <radialGradient id="surpriseFaceGradient" cx="0.3" cy="0.3">
      <stop offset="0%" stop-color="#FFFBEB"/>
      <stop offset="100%" stop-color="#FEF3C7"/>
    </radialGradient>
    <radialGradient id="eyeGradient" cx="0.3" cy="0.3">
      <stop offset="0%" stop-color="#FFFFFF"/>
      <stop offset="100%" stop-color="#F3F4F6"/>
    </radialGradient>
    <radialGradient id="mouthGradient" cx="0.5" cy="0.2">
      <stop offset="0%" stop-color="#7C2D12"/>
      <stop offset="100%" stop-color="#1F2937"/>
    </radialGradient>
  </defs>
  
  <circle cx="100" cy="100" r="80" fill="url(#surpriseFaceGradient)" stroke="#F59E0B" stroke-width="2"/>
  
  <!-- Eyebrows (highly raised with wrinkles) -->
  <path d="M 60 50 Q 75 40 90 50" stroke="#8B5CF6" stroke-width="4" stroke-linecap="round" fill="none"/>
  <path d="M 110 50 Q 125 40 140 50" stroke="#8B5CF6" stroke-width="4" stroke-linecap="round" fill="none"/>
  
  <!-- Forehead wrinkles (from raised eyebrows) -->
  <path d="M 65 60 Q 100 55 135 60" stroke="#F59E0B" stroke-width="1.5" stroke-linecap="round" fill="none" opacity="0.6"/>
  <path d="M 70 65 Q 100 60 130 65" stroke="#F59E0B" stroke-width="1" stroke-linecap="round" fill="none" opacity="0.4"/>
  <path d="M 75 70 Q 100 65 125 70" stroke="#F59E0B" stroke-width="0.8" stroke-linecap="round" fill="none" opacity="0.3"/>
  
  <!-- Eyes (very wide and round) -->
  <circle cx="75" cy="75" r="15" fill="url(#eyeGradient)" stroke="#374151" stroke-width="2"/>
  <circle cx="125" cy="75" r="15" fill="url(#eyeGradient)" stroke="#374151" stroke-width="2"/>
  
  <!-- Pupils (dilated from shock) -->
  <circle cx="75" cy="75" r="8" fill="#1F2937"/>
  <circle cx="125" cy="75" r="8" fill="#1F2937"/>
  
  <!-- Eye highlights (bright and alert) -->
  <circle cx="72" cy="72" r="2" fill="#FFFFFF"/>
  <circle cx="122" cy="72" r="2" fill="#FFFFFF"/>
  <circle cx="78" cy="78" r="1" fill="#FFFFFF" opacity="0.7"/>
  <circle cx="128" cy="78" r="1" fill="#FFFFFF" opacity="0.7"/>
  
  <!-- Upper eyelids (fully retracted) -->
  <path d="M 60 65 Q 75 60 90 65" stroke="#374151" stroke-width="1" stroke-linecap="round" fill="none" opacity="0.5"/>
  <path d="M 110 65 Q 125 60 140 65" stroke="#374151" stroke-width="1" stroke-linecap="round" fill="none" opacity="0.5"/>
  
  <!-- Lower eyelids (visible white) -->
  <path d="M 60 85 Q 75 90 90 85" stroke="#374151" stroke-width="1" stroke-linecap="round" fill="none" opacity="0.3"/>
  <path d="M 110 85 Q 125 90 140 85" stroke="#374151" stroke-width="1" stroke-linecap="round" fill="none" opacity="0.3"/>
  
  <!-- Nose (slightly flared from shock) -->
  <ellipse cx="100" cy="100" rx="4" ry="7" fill="#F59E0B"/>
  <ellipse cx="98" cy="98" rx="1.5" ry="2" fill="#FFFBEB" opacity="0.7"/>
  <!-- Nostril definition -->
  <ellipse cx="97" cy="102" rx="1" ry="2" fill="#D97706" opacity="0.6"/>
  <ellipse cx="103" cy="102" rx="1" ry="2" fill="#D97706" opacity="0.6"/>
  
  <!-- Mouth (wide open oval) -->
  <ellipse cx="100" cy="135" rx="12" ry="18" fill="url(#mouthGradient)"/>
  <!-- Inner mouth detail -->
  <ellipse cx="100" cy="132" rx="8" ry="12" fill="#7C2D12"/>
  <!-- Teeth (upper) -->
  <ellipse cx="100" cy="125" rx="10" ry="3" fill="#FFFFFF" stroke="#E5E7EB" stroke-width="0.5"/>
  <!-- Tongue (visible) -->
  <ellipse cx="100" cy="140" rx="6" ry="8" fill="#F87171" opacity="0.8"/>
  
  <!-- Cheek tension lines -->
  <path d="M 50 100 Q 55 105 60 100" stroke="#F59E0B" stroke-width="1" stroke-linecap="round" fill="none" opacity="0.4"/>
  <path d="M 140 100 Q 145 105 150 100" stroke="#F59E0B" stroke-width="1" stroke-linecap="round" fill="none" opacity="0.4"/>
  
  <!-- Jaw drop lines -->
  <path d="M 75 150 Q 80 155 85 150" stroke="#F59E0B" stroke-width="1" stroke-linecap="round" fill="none" opacity="0.3"/>
  <path d="M 115 150 Q 120 155 125 150" stroke="#F59E0B" stroke-width="1" stroke-linecap="round" fill="none" opacity="0.3"/>
  
  <!-- Surprise lines around face -->
  <path d="M 40 80 L 45 75" stroke="#F59E0B" stroke-width="2" stroke-linecap="round" opacity="0.6"/>
  <path d="M 155 75 L 160 80" stroke="#F59E0B" stroke-width="2" stroke-linecap="round" opacity="0.6"/>
  <path d="M 45 120 L 40 125" stroke="#F59E0B" stroke-width="2" stroke-linecap="round" opacity="0.6"/>
  <path d="M 160 125 L 155 120" stroke="#F59E0B" stroke-width="2" stroke-linecap="round" opacity="0.6"/>
</svg>