<svg width="200" height="200" viewBox="0 0 200 200" xmlns="http://www.w3.org/2000/svg">
  <defs>
    <!-- Face gradient with shock pallor -->
    <radialGradient id="faceGradientIntenseSurprise" cx="0.4" cy="0.3" r="0.8">
      <stop offset="0%" stop-color="#ffffff"/>
      <stop offset="70%" stop-color="#f8f5f0"/>
      <stop offset="100%" stop-color="#f0e8e0"/>
    </radialGradient>
    
    <!-- Intense shock aura -->
    <radialGradient id="intenseShockAura" cx="0.5" cy="0.3" r="0.9">
      <stop offset="0%" stop-color="rgba(255,250,230,0.4)"/>
      <stop offset="100%" stop-color="rgba(240,230,210,0.5)"/>
    </radialGradient>
    
    <!-- Eye gradient (extremely wide) -->
    <radialGradient id="eyeGradientShocked" cx="0.3" cy="0.3" r="0.8">
      <stop offset="0%" stop-color="#ffffff"/>
      <stop offset="60%" stop-color="#ffffff"/>
      <stop offset="100%" stop-color="#fafafa"/>
    </radialGradient>
    
    <!-- Shock energy -->
    <radialGradient id="shockEnergy" cx="0.5" cy="0.4" r="0.8">
      <stop offset="0%" stop-color="rgba(255,245,225,0.3)"/>
      <stop offset="100%" stop-color="rgba(240,230,210,0.4)"/>
    </radialGradient>
    
    <!-- Electric shock -->
    <radialGradient id="electricShock" cx="0.5" cy="0.3" r="0.6">
      <stop offset="0%" stop-color="rgba(255,255,255,0.6)"/>
      <stop offset="100%" stop-color="rgba(255,255,255,0.1)"/>
    </radialGradient>
    
    <!-- Explosion effect -->
    <radialGradient id="explosionEffect" cx="0.5" cy="0.5" r="0.8">
      <stop offset="0%" stop-color="rgba(255,250,240,0.2)"/>
      <stop offset="100%" stop-color="rgba(240,230,210,0.3)"/>
    </radialGradient>
  </defs>
  
  <!-- Intense shock aura -->
  <ellipse cx="100" cy="105" rx="100" ry="110" fill="url(#intenseShockAura)"/>
  
  <!-- Shock energy bursts -->
  <ellipse cx="100" cy="105" rx="85" ry="95" fill="url(#shockEnergy)"/>
  
  <!-- Electric shock effect -->
  <ellipse cx="100" cy="105" rx="75" ry="85" fill="url(#electricShock)"/>
  
  <!-- Explosion effect -->
  <ellipse cx="100" cy="105" rx="80" ry="90" fill="url(#explosionEffect)"/>
  
  <!-- Face outline (shocked) -->
  <ellipse cx="100" cy="105" rx="70" ry="80" fill="url(#faceGradientIntenseSurprise)" stroke="#e0d0c0" stroke-width="2"/>
  
  <!-- Hair (blown back by shock) -->
  <path d="M20 45 Q40 0 100 5 Q160 0 180 45 Q170 20 100 15 Q30 20 20 45" fill="#8b5a3c" stroke="#6d4428" stroke-width="0.5"/>
  <path d="M40 30 Q55 15 70 25" stroke="#9d6b4a" stroke-width="1" fill="none" opacity="0.6"/>
  <path d="M130 25 Q145 15 160 30" stroke="#9d6b4a" stroke-width="1" fill="none" opacity="0.6"/>
  <!-- Shocked hair strands -->
  <path d="M25 35 Q30 10 35 40" stroke="#9d6b4a" stroke-width="1.2" fill="none" opacity="0.7"/>
  <path d="M165 40 Q170 10 175 35" stroke="#9d6b4a" stroke-width="1.2" fill="none" opacity="0.7"/>
  <path d="M45 20 Q50 5 55 25" stroke="#9d6b4a" stroke-width="1" fill="none" opacity="0.6"/>
  <path d="M145 25 Q150 5 155 20" stroke="#9d6b4a" stroke-width="1" fill="none" opacity="0.6"/>
  <path d="M35 25 Q40 0 45 30" stroke="#9d6b4a" stroke-width="0.8" fill="none" opacity="0.5"/>
  <path d="M155 30 Q160 0 165 25" stroke="#9d6b4a" stroke-width="0.8" fill="none" opacity="0.5"/>
  
  <!-- Eyebrows (extremely raised) -->
  <path d="M50 60 Q70 50 90 60" stroke="#5d3428" stroke-width="4" fill="none" stroke-linecap="round"/>
  <path d="M110 60 Q130 50 150 60" stroke="#5d3428" stroke-width="4" fill="none" stroke-linecap="round"/>
  
  <!-- Extreme forehead lines -->
  <path d="M85 45 Q100 40 115 45" stroke="#e0d0c0" stroke-width="2" fill="none" opacity="0.8"/>
  <path d="M87 48 Q100 43 113 48" stroke="#e0d0c0" stroke-width="1.5" fill="none" opacity="0.7"/>
  <path d="M89 51 Q100 46 111 51" stroke="#e0d0c0" stroke-width="1.2" fill="none" opacity="0.6"/>
  <path d="M91 54 Q100 49 109 54" stroke="#e0d0c0" stroke-width="1" fill="none" opacity="0.5"/>
  
  <!-- Eyes (extremely wide with shock) -->
  <ellipse cx="70" cy="80" rx="20" ry="18" fill="url(#eyeGradientShocked)" stroke="#e0d0c0" stroke-width="2"/>
  <ellipse cx="130" cy="80" rx="20" ry="18" fill="url(#eyeGradientShocked)" stroke="#e0d0c0" stroke-width="2"/>
  
  <!-- Upper eyelids (completely raised) -->
  <path d="M50 65 Q70 58 90 65" stroke="#e0d0c0" stroke-width="2.5" fill="none"/>
  <path d="M110 65 Q130 58 150 65" stroke="#e0d0c0" stroke-width="2.5" fill="none"/>
  
  <!-- Lower eyelids (dropped) -->
  <path d="M50 95 Q70 102 90 95" stroke="#f0e0d0" stroke-width="2" fill="none" opacity="0.8"/>
  <path d="M110 95 Q130 102 150 95" stroke="#f0e0d0" stroke-width="2" fill="none" opacity="0.8"/>
  
  <!-- Pupils (extremely dilated) -->
  <circle cx="70" cy="80" r="7" fill="#1c0810"/>
  <circle cx="130" cy="80" r="7" fill="#1c0810"/>
  
  <!-- Eye highlights (intense shock) -->
  <circle cx="72" cy="78" r="2" fill="#ffffff" opacity="1"/>
  <circle cx="132" cy="78" r="2" fill="#ffffff" opacity="1"/>
  
  <!-- Shock whites visible all around -->
  <path d="M55 75 Q62 68 70 75" stroke="#ffffff" stroke-width="3" fill="none" opacity="0.9"/>
  <path d="M70 85 Q78 92 85 85" stroke="#ffffff" stroke-width="3" fill="none" opacity="0.9"/>
  <path d="M115 75 Q122 68 130 75" stroke="#ffffff" stroke-width="3" fill="none" opacity="0.9"/>
  <path d="M130 85 Q138 92 145 85" stroke="#ffffff" stroke-width="3" fill="none" opacity="0.9"/>
  
  <!-- Nose (normal but tense) -->
  <path d="M92 90 L100 105 L108 90" stroke="#e0d0c0" stroke-width="2" fill="none" stroke-linecap="round"/>
  <ellipse cx="96" cy="102" rx="2" ry="2.5" fill="#e0d0c0" opacity="0.5"/>
  <ellipse cx="104" cy="102" rx="2" ry="2.5" fill="#e0d0c0" opacity="0.5"/>
  
  <!-- Mouth (completely dropped open) -->
  <ellipse cx="100" cy="135" rx="18" ry="15" fill="#2c1810" stroke="#e0d0c0" stroke-width="2.5"/>
  
  <!-- Teeth visible in shock -->
  <rect x="85" y="128" width="30" height="5" fill="#ffffff" rx="1" opacity="0.9"/>
  <path d="M87 128 L87 133" stroke="#f0f0f0" stroke-width="0.5"/>
  <path d="M92 128 L92 133" stroke="#f0f0f0" stroke-width="0.5"/>
  <path d="M97 128 L97 133" stroke="#f0f0f0" stroke-width="0.5"/>
  <path d="M102 128 L102 133" stroke="#f0f0f0" stroke-width="0.5"/>
  <path d="M107 128 L107 133" stroke="#f0f0f0" stroke-width="0.5"/>
  <path d="M112 128 L112 133" stroke="#f0f0f0" stroke-width="0.5"/>
  
  <!-- Lip definition (stretched) -->
  <path d="M82 128 Q100 123 118 128" stroke="#f0e0d0" stroke-width="2" fill="none" opacity="0.8"/>
  
  <!-- Extreme mouth tension -->
  <path d="M75 140 Q82 148 90 140" stroke="#f0e0d0" stroke-width="2" fill="none" opacity="0.7"/>
  <path d="M110 140 Q118 148 125 140" stroke="#f0e0d0" stroke-width="2" fill="none" opacity="0.7"/>
  
  <!-- Deep nasolabial folds -->
  <path d="M108 105 Q120 118 118 128" stroke="#f0e0d0" stroke-width="2.5" fill="none" opacity="0.8"/>
  <path d="M92 105 Q80 118 82 128" stroke="#f0e0d0" stroke-width="2.5" fill="none" opacity="0.8"/>
  
  <!-- Cheek tension (pulled down) -->
  <path d="M125 115 Q135 125 130 135" stroke="#f8f0e8" stroke-width="2" fill="none" opacity="0.6"/>
  <path d="M75 115 Q65 125 70 135" stroke="#f8f0e8" stroke-width="2" fill="none" opacity="0.6"/>
  
  <!-- Jaw completely dropped -->
  <path d="M70 155 Q100 160 130 155" stroke="#f0e0d0" stroke-width="2.5" fill="none" opacity="0.7"/>
  
  <!-- Neck tension (rigid with shock) -->
  <path d="M80 175 Q100 178 120 175" stroke="#f8f0e8" stroke-width="2" fill="none" opacity="0.5"/>
  
  <!-- Shock energy bursts -->
  <path d="M15 60 Q25 50 35 60" stroke="rgba(255,250,230,0.8)" stroke-width="3" fill="none" opacity="0.8"/>
  <path d="M165 60 Q175 50 185 60" stroke="rgba(255,250,230,0.8)" stroke-width="3" fill="none" opacity="0.8"/>
  <path d="M20 100 Q30 90 40 100" stroke="rgba(255,250,230,0.7)" stroke-width="2.5" fill="none" opacity="0.7"/>
  <path d="M160 100 Q170 90 180 100" stroke="rgba(255,250,230,0.7)" stroke-width="2.5" fill="none" opacity="0.7"/>
  
  <!-- Electric shock lines -->
  <path d="M10 80 Q20 70 30 80 Q40 90 50 80" stroke="rgba(255,255,255,0.6)" stroke-width="2" fill="none"/>
  <path d="M150 80 Q160 70 170 80 Q180 90 190 80" stroke="rgba(255,255,255,0.6)" stroke-width="2" fill="none"/>
  
  <!-- Explosion lines -->
  <path d="M5 120 Q15 110 25 120" stroke="rgba(240,230,210,0.5)" stroke-width="2" fill="none"/>
  <path d="M175 120 Q185 110 195 120" stroke="rgba(240,230,210,0.5)" stroke-width="2" fill="none"/>
  
  <!-- Shock shadow -->
  <ellipse cx="100" cy="175" rx="65" ry="15" fill="rgba(240,230,210,0.4)"/>
  
  <!-- Intense shock aura -->
  <ellipse cx="100" cy="105" rx="72" ry="82" fill="none" stroke="rgba(255,250,230,0.6)" stroke-width="3"/>
  
  <!-- Shock sparkles -->
  <circle cx="15" cy="70" r="2" fill="rgba(255,255,255,0.9)"/>
  <circle cx="185" cy="75" r="1.8" fill="rgba(255,255,255,0.8)"/>
  <circle cx="10" cy="110" r="1.5" fill="rgba(255,255,255,0.7)"/>
  <circle cx="190" cy="105" r="1.2" fill="rgba(255,255,255,0.6)"/>
  <circle cx="25" cy="130" r="1" fill="rgba(255,255,255,0.5)"/>
  <circle cx="175" cy="135" r="0.8" fill="rgba(255,255,255,0.4)"/>
</svg>