<svg viewBox="0 0 200 200" xmlns="http://www.w3.org/2000/svg">
  <!-- Face circle with gradient -->
  <defs>
    <radialGradient id="sadFaceGradient" cx="0.3" cy="0.3">
      <stop offset="0%" stop-color="#E0E7FF"/>
      <stop offset="100%" stop-color="#C7D2FE"/>
    </radialGradient>
    <radialGradient id="tearGradient" cx="0.3" cy="0.1">
      <stop offset="0%" stop-color="#DBEAFE"/>
      <stop offset="100%" stop-color="#60A5FA"/>
    </radialGradient>
  </defs>
  
  <circle cx="100" cy="100" r="80" fill="url(#sadFaceGradient)" stroke="#6366F1" stroke-width="2"/>
  
  <!-- Eyebrows (raised inward, creating worry lines) -->
  <path d="M 60 70 Q 75 60 90 68" stroke="#4C1D95" stroke-width="4" stroke-linecap="round" fill="none"/>
  <path d="M 110 68 Q 125 60 140 70" stroke="#4C1D95" stroke-width="4" stroke-linecap="round" fill="none"/>
  
  <!-- Forehead wrinkles -->
  <path d="M 70 55 Q 100 50 130 55" stroke="#6366F1" stroke-width="1.5" stroke-linecap="round" fill="none" opacity="0.6"/>
  <path d="M 75 50 Q 100 45 125 50" stroke="#6366F1" stroke-width="1" stroke-linecap="round" fill="none" opacity="0.4"/>
  
  <!-- Eyes (droopy and sad) -->
  <ellipse cx="75" cy="80" rx="8" ry="6" fill="#374151"/>
  <ellipse cx="125" cy="80" rx="8" ry="6" fill="#374151"/>
  
  <!-- Pupils (looking down) -->
  <circle cx="75" cy="82" r="3" fill="#1F2937"/>
  <circle cx="125" cy="82" r="3" fill="#1F2937"/>
  
  <!-- Eye highlights -->
  <circle cx="76" cy="81" r="1" fill="#FFFFFF"/>
  <circle cx="126" cy="81" r="1" fill="#FFFFFF"/>
  
  <!-- Lower eyelids (puffy from crying) -->
  <path d="M 67 85 Q 75 88 83 85" stroke="#6366F1" stroke-width="2" stroke-linecap="round" fill="none" opacity="0.5"/>
  <path d="M 117 85 Q 125 88 133 85" stroke="#6366F1" stroke-width="2" stroke-linecap="round" fill="none" opacity="0.5"/>
  
  <!-- Tears (multiple drops) -->
  <ellipse cx="83" cy="95" rx="3" ry="12" fill="url(#tearGradient)"/>
  <ellipse cx="117" cy="95" rx="3" ry="12" fill="url(#tearGradient)"/>
  <circle cx="85" cy="110" r="2" fill="#60A5FA" opacity="0.8"/>
  <circle cx="115" cy="110" r="2" fill="#60A5FA" opacity="0.8"/>
  
  <!-- Nose (slightly red from crying) -->
  <ellipse cx="100" cy="100" rx="4" ry="7" fill="#F87171"/>
  <ellipse cx="98" cy="98" rx="1.5" ry="2" fill="#FEE2E2" opacity="0.7"/>
  
  <!-- Mouth (downturned) -->
  <path d="M 85 130 Q 100 120 115 130" stroke="#7C2D12" stroke-width="4" stroke-linecap="round" fill="none"/>
  
  <!-- Nasolabial folds (lines from nose to mouth) -->
  <path d="M 88 108 Q 85 120 82 128" stroke="#6366F1" stroke-width="1.5" stroke-linecap="round" fill="none" opacity="0.4"/>
  <path d="M 112 108 Q 115 120 118 128" stroke="#6366F1" stroke-width="1.5" stroke-linecap="round" fill="none" opacity="0.4"/>
  
  <!-- Chin wrinkle (from frowning) -->
  <path d="M 95 145 Q 100 148 105 145" stroke="#6366F1" stroke-width="1" stroke-linecap="round" fill="none" opacity="0.5"/>
</svg>