<svg width="200" height="200" viewBox="0 0 200 200" xmlns="http://www.w3.org/2000/svg">
  <defs>
    <!-- Face gradient with gentle melancholy -->
    <radialGradient id="faceGradientMildSadness" cx="0.4" cy="0.3" r="0.8">
      <stop offset="0%" stop-color="#f0e8e0"/>
      <stop offset="70%" stop-color="#e8d8d0"/>
      <stop offset="100%" stop-color="#d8c8c0"/>
    </radialGradient>
    
    <!-- Gentle melancholy aura -->
    <radialGradient id="gentleMelancholyAura" cx="0.5" cy="0.4" r="0.9">
      <stop offset="0%" stop-color="rgba(180,180,200,0.1)"/>
      <stop offset="100%" stop-color="rgba(160,160,180,0.15)"/>
    </radialGradient>
    
    <!-- Eye gradient (slightly watery) -->
    <radialGradient id="eyeGradientMild" cx="0.3" cy="0.3" r="0.8">
      <stop offset="0%" stop-color="#ffffff"/>
      <stop offset="80%" stop-color="#f8f8f8"/>
      <stop offset="100%" stop-color="#f0f0f0"/>
    </radialGradient>
    
    <!-- Subtle sadness shadow -->
    <radialGradient id="subtleSadnessShadow" cx="0.5" cy="0.6" r="0.8">
      <stop offset="0%" stop-color="rgba(160,160,180,0.1)"/>
      <stop offset="100%" stop-color="rgba(140,140,160,0.2)"/>
    </radialGradient>
  </defs>
  
  <!-- Gentle melancholy aura -->
  <ellipse cx="100" cy="108" rx="80" ry="90" fill="url(#gentleMelancholyAura)"/>
  
  <!-- Face outline (slightly drooped) -->
  <ellipse cx="100" cy="108" rx="70" ry="80" fill="url(#faceGradientMildSadness)" stroke="#c4a894" stroke-width="1.2"/>
  <ellipse cx="100" cy="110" rx="68" ry="78" fill="url(#subtleSadnessShadow)"/>
  
  <!-- Hair (slightly disheveled) -->
  <path d="M30 58 Q50 18 100 23 Q150 18 170 58 Q160 38 100 33 Q40 38 30 58" fill="#7a5a4c" stroke="#5d4428" stroke-width="0.5"/>
  <path d="M50 48 Q65 38 80 43" stroke="#8d6b5a" stroke-width="0.8" fill="none" opacity="0.5"/>
  <path d="M120 43 Q135 38 150 48" stroke="#8d6b5a" stroke-width="0.8" fill="none" opacity="0.5"/>
  
  <!-- Eyebrows (slightly downturned) -->
  <path d="M62 72 Q70 70 78 72" stroke="#5d4037" stroke-width="2.8" fill="none" stroke-linecap="round"/>
  <path d="M122 72 Q130 70 138 72" stroke="#5d4037" stroke-width="2.8" fill="none" stroke-linecap="round"/>
  
  <!-- Subtle worry lines -->
  <path d="M68 68 Q72 66 76 68" stroke="#d4a894" stroke-width="0.6" fill="none" opacity="0.4"/>
  <path d="M124 68 Q128 66 132 68" stroke="#d4a894" stroke-width="0.6" fill="none" opacity="0.4"/>
  
  <!-- Eyes (slightly droopy) -->
  <ellipse cx="70" cy="82" rx="11" ry="7" fill="url(#eyeGradientMild)" stroke="#c4a894" stroke-width="0.8"/>
  <ellipse cx="130" cy="82" rx="11" ry="7" fill="url(#eyeGradientMild)" stroke="#c4a894" stroke-width="0.8"/>
  
  <!-- Upper eyelids (slightly heavy) -->
  <path d="M59 79 Q70 77 81 79" stroke="#c4a894" stroke-width="1.2" fill="none"/>
  <path d="M119 79 Q130 77 141 79" stroke="#c4a894" stroke-width="1.2" fill="none"/>
  
  <!-- Lower eyelids (slightly puffy) -->
  <path d="M59 85 Q70 87 81 85" stroke="#d4a894" stroke-width="0.8" fill="none" opacity="0.6"/>
  <path d="M119 85 Q130 87 141 85" stroke="#d4a894" stroke-width="0.8" fill="none" opacity="0.6"/>
  
  <!-- Pupils (looking slightly down) -->
  <circle cx="70" cy="83" r="3.5" fill="#2c1810"/>
  <circle cx="130" cy="83" r="3.5" fill="#2c1810"/>
  
  <!-- Eye highlights (dimmed) -->
  <circle cx="71" cy="82" r="1" fill="#ffffff" opacity="0.7"/>
  <circle cx="131" cy="82" r="1" fill="#ffffff" opacity="0.7"/>
  
  <!-- Subtle under-eye shadows -->
  <ellipse cx="70" cy="87" rx="8" ry="2" fill="rgba(180,160,160,0.2)"/>
  <ellipse cx="130" cy="87" rx="8" ry="2" fill="rgba(180,160,160,0.2)"/>
  
  <!-- Nose -->
  <path d="M95 92 L100 102 L105 92" stroke="#c4a894" stroke-width="1.5" fill="none" stroke-linecap="round"/>
  <ellipse cx="98" cy="99" rx="1.5" ry="2" fill="#c4a894" opacity="0.3"/>
  <ellipse cx="102" cy="99" rx="1.5" ry="2" fill="#c4a894" opacity="0.3"/>
  
  <!-- Mouth (slightly downturned) -->
  <path d="M88 128 Q100 125 112 128" stroke="#c4a894" stroke-width="2" fill="none" stroke-linecap="round"/>
  
  <!-- Lip definition -->
  <path d="M90 126 Q100 124 110 126" stroke="#d4a894" stroke-width="0.8" fill="none" opacity="0.6"/>
  
  <!-- Subtle mouth corners -->
  <path d="M86 130 Q88 132 90 130" stroke="#d4a894" stroke-width="0.6" fill="none" opacity="0.5"/>
  <path d="M110 130 Q112 132 114 130" stroke="#d4a894" stroke-width="0.6" fill="none" opacity="0.5"/>
  
  <!-- Gentle nasolabial folds -->
  <path d="M105 102 Q110 112 112 122" stroke="#e0c8b8" stroke-width="0.8" fill="none" opacity="0.4"/>
  <path d="M95 102 Q90 112 88 122" stroke="#e0c8b8" stroke-width="0.8" fill="none" opacity="0.4"/>
  
  <!-- Cheek definition -->
  <path d="M115 110 Q118 115 116 120" stroke="#e8d0c8" stroke-width="0.8" fill="none" opacity="0.3"/>
  <path d="M85 110 Q82 115 84 120" stroke="#e8d0c8" stroke-width="0.8" fill="none" opacity="0.3"/>
  
  <!-- Chin and jawline -->
  <path d="M85 152 Q100 154 115 152" stroke="#d4a894" stroke-width="0.8" fill="none" opacity="0.4"/>
  <path d="M75 137 Q90 142 100 140" stroke="#e0c8b8" stroke-width="0.8" fill="none" opacity="0.3"/>
  <path d="M100 140 Q110 142 125 137" stroke="#e0c8b8" stroke-width="0.8" fill="none" opacity="0.3"/>
  
  <!-- Neck -->
  <path d="M90 177 Q100 180 110 177" stroke="#e0c8b8" stroke-width="0.8" fill="none" opacity="0.3"/>
  
  <!-- Subtle single tear -->
  <ellipse cx="75" cy="90" rx="1.5" ry="3" fill="rgba(200,220,240,0.6)"/>
  <ellipse cx="75" cy="93" rx="1" ry="2" fill="rgba(220,240,255,0.8)"/>
  
  <!-- Gentle shadow -->
  <ellipse cx="100" cy="178" rx="48" ry="7" fill="rgba(160,160,180,0.15)"/>
  
  <!-- Subtle melancholy aura -->
  <ellipse cx="100" cy="108" rx="72" ry="82" fill="none" stroke="rgba(180,180,200,0.2)" stroke-width="1"/>
</svg>